<svg width="1440" height="867" viewBox="0 0 1440 867" fill="none" xmlns="http://www.w3.org/2000/svg">
<mask id="path-1-outside-1_41_300" maskUnits="userSpaceOnUse" x="861" y="154.908" width="410" height="112" fill="black">
<rect fill="white" x="861" y="154.908" width="410" height="112"/>
<path d="M886.825 239.368C886.118 242.7 886.875 244.367 889.097 244.367C891.622 244.367 893.237 242.7 893.944 239.368L900.307 213.766H924.696L918.788 237.55C916.465 246.437 912.224 253.304 906.063 258.152C900.004 262.999 892.48 265.423 883.492 265.423C874.605 265.423 868.394 263.05 864.859 258.303C861.425 253.557 860.819 246.639 863.041 237.55L876.372 184.227C878.695 175.137 882.785 168.27 888.642 163.625C894.5 158.878 901.872 156.505 910.759 156.505C919.748 156.505 926.059 158.928 929.695 163.776C933.432 168.523 934.189 175.339 931.967 184.227L926.059 208.161H901.822L908.184 182.56C909.093 179.127 908.336 177.41 905.912 177.41C903.589 177.41 901.973 179.127 901.064 182.56L886.825 239.368ZM935.398 184.227C937.62 175.036 941.66 168.119 947.517 163.473C953.375 158.727 960.747 156.353 969.634 156.353C978.622 156.353 984.985 158.777 988.721 163.625C992.458 168.472 993.215 175.339 990.994 184.227L977.663 237.398C975.441 246.386 971.25 253.304 965.09 258.152C959.03 262.999 951.506 265.423 942.518 265.423C933.631 265.423 927.42 263.05 923.885 258.303C920.351 253.557 919.745 246.588 922.068 237.398L935.398 184.227ZM945.851 239.368C944.942 242.7 945.649 244.367 947.972 244.367C950.496 244.367 952.163 242.7 952.971 239.368L967.21 182.409C967.917 179.076 967.16 177.41 964.938 177.41C962.514 177.41 960.898 179.076 960.091 182.409L945.851 239.368ZM1025.33 157.868L1004.88 239.368C1004.17 242.7 1004.88 244.367 1007 244.367C1009.32 244.367 1010.89 242.65 1011.69 239.216L1031.99 157.868H1056.38L1036.39 237.398C1034.16 246.386 1030.02 253.304 1023.96 258.152C1017.9 262.999 1010.38 265.423 1001.39 265.423C992.506 265.423 986.345 263.05 982.912 258.303C979.478 253.557 978.923 246.588 981.245 237.398L1001.09 157.868H1025.33ZM1086.64 157.717C1095.63 157.717 1101.99 160.09 1105.72 164.836C1109.46 169.482 1110.12 176.602 1107.69 186.196L1107.24 188.165C1106.23 192.205 1104.87 195.79 1103.15 198.921C1101.43 201.951 1099.51 204.526 1097.39 206.647C1095.37 208.767 1093.3 210.383 1091.18 211.494C1089.16 212.605 1087.24 213.211 1085.43 213.312L1084.97 214.978C1086.69 215.079 1088.3 215.786 1089.82 217.099C1091.33 218.311 1092.54 220.028 1093.45 222.25C1094.46 224.471 1095.07 227.198 1095.27 230.43C1095.47 233.561 1095.07 237.095 1094.06 241.034L1093.76 242.246C1092.65 246.588 1091.74 250.477 1091.03 253.91C1090.42 257.344 1090.02 260.677 1089.82 263.908H1065.58C1065.78 260.677 1066.19 257.293 1066.79 253.759C1067.5 250.123 1068.41 246.235 1069.52 242.094L1072.55 229.824C1073.05 227.905 1073.1 226.592 1072.7 225.885C1072.3 225.077 1071.34 224.673 1069.82 224.673H1067.25L1057.4 263.908H1033.16L1059.67 157.717H1086.64ZM1072.4 203.617H1074.97C1076.69 203.617 1077.9 203.162 1078.61 202.253C1079.42 201.244 1080.02 199.931 1080.43 198.315L1084.06 183.924C1084.57 182.106 1084.62 180.793 1084.21 179.985C1083.81 179.177 1082.85 178.773 1081.33 178.773H1078.61L1072.4 203.617ZM1140.52 194.831L1143.55 182.409C1144.35 179.076 1143.65 177.41 1141.43 177.41C1139 177.41 1137.39 179.127 1136.58 182.56L1134.61 190.286C1134.31 191.599 1134.1 192.76 1134 193.77C1134 194.679 1134.31 195.588 1134.91 196.497C1135.62 197.406 1136.68 198.416 1138.09 199.527C1139.61 200.537 1141.63 201.799 1144.15 203.314L1148.09 205.435C1150.51 206.849 1152.38 208.414 1153.7 210.131C1155.11 211.747 1156.07 213.716 1156.57 216.039C1157.08 218.26 1157.18 220.937 1156.88 224.067C1156.57 227.198 1155.87 230.935 1154.76 235.277L1154.15 237.398C1151.93 246.386 1147.74 253.304 1141.58 258.152C1135.52 262.999 1127.99 265.423 1119.01 265.423C1110.12 265.423 1103.91 263.05 1100.37 258.303C1096.84 253.557 1096.23 246.588 1098.55 237.398L1101.13 226.946H1125.37L1122.34 239.216C1121.43 242.65 1122.14 244.367 1124.46 244.367C1126.98 244.367 1128.65 242.7 1129.46 239.368L1131.43 231.036C1131.73 229.723 1131.88 228.612 1131.88 227.703C1131.98 226.794 1131.73 225.936 1131.12 225.128C1130.52 224.219 1129.56 223.31 1128.25 222.401C1126.93 221.391 1125.12 220.179 1122.79 218.765L1118.25 216.19C1115.82 214.776 1113.91 213.211 1112.49 211.494C1111.18 209.676 1110.22 207.606 1109.61 205.283C1109.11 202.859 1109.01 200.082 1109.31 196.951C1109.71 193.72 1110.47 189.983 1111.58 185.742L1112.19 182.863C1114.31 174.38 1118.3 167.866 1124.16 163.322C1130.01 158.676 1137.34 156.353 1146.12 156.353C1155.11 156.353 1161.47 158.777 1165.21 163.625C1168.95 168.472 1169.7 175.339 1167.48 184.227L1164.75 194.831H1140.52ZM1196.51 178.925L1191.82 197.709H1206.36L1201.21 218.765H1186.67L1180.61 242.852H1195.45L1190.3 263.908H1151.22L1177.58 157.868H1216.51L1211.36 178.925H1196.51ZM1242 194.831L1245.03 182.409C1245.84 179.076 1245.13 177.41 1242.91 177.41C1240.49 177.41 1238.87 179.127 1238.06 182.56L1236.09 190.286C1235.79 191.599 1235.59 192.76 1235.49 193.77C1235.49 194.679 1235.79 195.588 1236.4 196.497C1237.1 197.406 1238.16 198.416 1239.58 199.527C1241.09 200.537 1243.11 201.799 1245.64 203.314L1249.57 205.435C1252 206.849 1253.87 208.414 1255.18 210.131C1256.59 211.747 1257.55 213.716 1258.06 216.039C1258.56 218.26 1258.66 220.937 1258.36 224.067C1258.06 227.198 1257.35 230.935 1256.24 235.277L1255.63 237.398C1253.41 246.386 1249.22 253.304 1243.06 258.152C1237 262.999 1229.48 265.423 1220.49 265.423C1211.6 265.423 1205.39 263.05 1201.86 258.303C1198.32 253.557 1197.72 246.588 1200.04 237.398L1202.61 226.946H1226.85L1223.82 239.216C1222.91 242.65 1223.62 244.367 1225.94 244.367C1228.47 244.367 1230.13 242.7 1230.94 239.368L1232.91 231.036C1233.21 229.723 1233.37 228.612 1233.37 227.703C1233.47 226.794 1233.21 225.936 1232.61 225.128C1232 224.219 1231.04 223.31 1229.73 222.401C1228.42 221.391 1226.6 220.179 1224.28 218.765L1219.73 216.19C1217.31 214.776 1215.39 213.211 1213.98 211.494C1212.66 209.676 1211.7 207.606 1211.1 205.283C1210.59 202.859 1210.49 200.082 1210.79 196.951C1211.2 193.72 1211.96 189.983 1213.07 185.742L1213.67 182.863C1215.79 174.38 1219.78 167.866 1225.64 163.322C1231.5 158.676 1238.82 156.353 1247.6 156.353C1256.59 156.353 1262.96 158.777 1266.69 163.625C1270.43 168.472 1271.19 175.339 1268.96 184.227L1266.24 194.831H1242Z"/>
</mask>
<path d="M886.825 239.368L886.23 239.219L886.227 239.229L886.225 239.24L886.825 239.368ZM893.944 239.368L893.35 239.22L893.347 239.23L893.345 239.24L893.944 239.368ZM900.307 213.766V213.153H899.828L899.712 213.619L900.307 213.766ZM924.696 213.766L925.291 213.914L925.48 213.153H924.696V213.766ZM918.788 237.55L919.381 237.705L919.383 237.697L918.788 237.55ZM906.063 258.152L905.684 257.67L905.68 257.673L906.063 258.152ZM864.859 258.303L864.362 258.663L864.368 258.669L864.859 258.303ZM863.041 237.55L862.447 237.401L862.446 237.404L863.041 237.55ZM876.372 184.227L875.778 184.075L875.777 184.078L876.372 184.227ZM888.642 163.625L889.023 164.105L889.028 164.101L888.642 163.625ZM929.695 163.776L929.205 164.144L929.209 164.15L929.214 164.155L929.695 163.776ZM931.967 184.227L931.373 184.078L931.372 184.08L931.967 184.227ZM926.059 208.161V208.774H926.54L926.655 208.308L926.059 208.161ZM901.822 208.161L901.227 208.014L901.038 208.774H901.822V208.161ZM908.184 182.56L907.591 182.403L907.589 182.412L908.184 182.56ZM901.064 182.56L900.472 182.403L900.47 182.411L901.064 182.56ZM886.225 239.24C885.865 240.939 885.842 242.352 886.304 243.37C886.544 243.897 886.911 244.312 887.406 244.589C887.893 244.862 888.467 244.98 889.097 244.98V243.754C888.615 243.754 888.262 243.663 888.004 243.519C887.754 243.379 887.56 243.17 887.42 242.863C887.126 242.215 887.078 241.128 887.424 239.495L886.225 239.24ZM889.097 244.98C890.509 244.98 891.708 244.507 892.642 243.544C893.56 242.597 894.177 241.224 894.544 239.495L893.345 239.24C893.005 240.843 892.461 241.97 891.762 242.69C891.081 243.393 890.21 243.754 889.097 243.754V244.98ZM894.539 239.515L900.902 213.914L899.712 213.619L893.35 239.22L894.539 239.515ZM900.307 214.379H924.696V213.153H900.307V214.379ZM924.101 213.619L918.193 237.402L919.383 237.697L925.291 213.914L924.101 213.619ZM918.195 237.395C915.9 246.176 911.722 252.919 905.684 257.67L906.442 258.633C912.725 253.69 917.031 246.698 919.381 237.705L918.195 237.395ZM905.68 257.673C899.746 262.42 892.364 264.81 883.492 264.81V266.036C892.596 266.036 900.261 263.578 906.446 258.63L905.68 257.673ZM883.492 264.81C874.698 264.81 868.72 262.462 865.351 257.937L864.368 258.669C868.067 263.637 874.512 266.036 883.492 266.036V264.81ZM865.356 257.944C862.077 253.411 861.432 246.713 863.637 237.695L862.446 237.404C860.207 246.565 860.774 253.702 864.362 258.663L865.356 257.944ZM863.636 237.698L876.967 184.375L875.777 184.078L862.447 237.401L863.636 237.698ZM876.966 184.378C879.264 175.385 883.295 168.648 889.023 164.105L888.262 163.144C882.275 167.892 878.126 174.889 875.778 184.075L876.966 184.378ZM889.028 164.101C894.758 159.458 901.986 157.118 910.759 157.118V155.892C901.758 155.892 894.242 158.298 888.257 163.148L889.028 164.101ZM910.759 157.118C919.652 157.118 925.733 159.515 929.205 164.144L930.185 163.408C926.386 158.342 919.843 155.892 910.759 155.892V157.118ZM929.214 164.155C932.782 168.688 933.573 175.277 931.373 184.078L932.562 184.375C934.805 175.402 934.081 168.357 930.177 163.397L929.214 164.155ZM931.372 184.08L925.464 208.015L926.655 208.308L932.562 184.374L931.372 184.08ZM926.059 207.548H901.822V208.774H926.059V207.548ZM902.417 208.309L908.779 182.708L907.589 182.412L901.227 208.014L902.417 208.309ZM908.777 182.717C909.239 180.97 909.325 179.508 908.859 178.45C908.616 177.901 908.231 177.474 907.708 177.192C907.196 176.916 906.586 176.797 905.912 176.797V178.023C906.449 178.023 906.843 178.118 907.126 178.271C907.399 178.418 907.6 178.635 907.737 178.945C908.028 179.604 908.038 180.717 907.592 182.403L908.777 182.717ZM905.912 176.797C904.579 176.797 903.433 177.298 902.511 178.277C901.607 179.238 900.94 180.634 900.472 182.403L901.657 182.717C902.097 181.053 902.693 179.873 903.404 179.118C904.098 178.38 904.922 178.023 905.912 178.023V176.797ZM900.47 182.411L886.23 239.219L887.419 239.517L901.659 182.709L900.47 182.411ZM935.398 184.227L935.993 184.376L935.994 184.371L935.398 184.227ZM947.517 163.473L947.898 163.953L947.903 163.949L947.517 163.473ZM988.721 163.625L989.207 163.25V163.25L988.721 163.625ZM990.994 184.227L991.588 184.376L991.588 184.375L990.994 184.227ZM977.663 237.398L977.068 237.249L977.068 237.251L977.663 237.398ZM965.09 258.152L964.711 257.67L964.707 257.673L965.09 258.152ZM923.885 258.303L923.394 258.669L923.885 258.303ZM922.068 237.398L922.662 237.548L922.662 237.547L922.068 237.398ZM945.851 239.368L946.442 239.529L946.446 239.516L945.851 239.368ZM952.971 239.368L952.376 239.219L952.375 239.223L952.971 239.368ZM967.21 182.409L967.805 182.557L967.808 182.547L967.81 182.536L967.21 182.409ZM960.091 182.409L960.685 182.557L960.686 182.553L960.091 182.409ZM935.994 184.371C938.192 175.278 942.173 168.494 947.898 163.953L947.136 162.993C941.146 167.744 937.048 174.795 934.803 184.083L935.994 184.371ZM947.903 163.949C953.633 159.306 960.861 156.966 969.634 156.966V155.74C960.633 155.74 953.117 158.147 947.131 162.997L947.903 163.949ZM969.634 156.966C978.525 156.966 984.662 159.362 988.236 163.999L989.207 163.25C985.307 158.192 978.72 155.74 969.634 155.74V156.966ZM988.236 163.999C991.81 168.636 992.599 175.28 990.399 184.078L991.588 184.375C993.832 175.399 993.106 168.308 989.207 163.25L988.236 163.999ZM990.399 184.078L977.068 237.249L978.257 237.547L991.588 184.376L990.399 184.078ZM977.068 237.251C974.873 246.132 970.745 252.922 964.711 257.67L965.469 258.633C971.755 253.687 976.01 246.641 978.258 237.545L977.068 237.251ZM964.707 257.673C958.773 262.42 951.39 264.81 942.518 264.81V266.036C951.622 266.036 959.288 263.578 965.472 258.63L964.707 257.673ZM942.518 264.81C933.724 264.81 927.747 262.462 924.377 257.937L923.394 258.669C927.093 263.637 933.538 266.036 942.518 266.036V264.81ZM924.377 257.937C921.005 253.409 920.357 246.667 922.662 237.548L921.473 237.248C919.132 246.51 919.697 253.705 923.394 258.669L924.377 257.937ZM922.662 237.547L935.993 184.376L934.804 184.078L921.473 237.249L922.662 237.547ZM945.26 239.206C944.797 240.902 944.697 242.324 945.135 243.356C945.363 243.893 945.732 244.313 946.237 244.591C946.732 244.863 947.322 244.98 947.972 244.98V243.754C947.46 243.754 947.09 243.661 946.828 243.517C946.576 243.378 946.389 243.174 946.264 242.877C945.995 242.243 945.996 241.166 946.442 239.529L945.26 239.206ZM947.972 244.98C949.384 244.98 950.592 244.507 951.548 243.55C952.49 242.609 953.147 241.241 953.566 239.512L952.375 239.223C951.986 240.827 951.407 241.958 950.682 242.683C949.972 243.393 949.084 243.754 947.972 243.754V244.98ZM953.565 239.516L967.805 182.557L966.616 182.26L952.376 239.219L953.565 239.516ZM967.81 182.536C968.17 180.837 968.193 179.424 967.731 178.406C967.491 177.879 967.124 177.464 966.629 177.187C966.142 176.915 965.568 176.797 964.938 176.797V178.023C965.42 178.023 965.773 178.113 966.031 178.257C966.281 178.397 966.475 178.606 966.615 178.913C966.909 179.562 966.957 180.648 966.611 182.282L967.81 182.536ZM964.938 176.797C963.569 176.797 962.397 177.275 961.468 178.233C960.556 179.173 959.913 180.539 959.495 182.264L960.686 182.553C961.076 180.946 961.645 179.812 962.348 179.086C963.035 178.378 963.884 178.023 964.938 178.023V176.797ZM959.496 182.26L945.256 239.219L946.446 239.516L960.685 182.557L959.496 182.26ZM1025.33 157.868L1025.92 158.017L1026.11 157.255H1025.33V157.868ZM1004.88 239.368L1004.28 239.218L1004.28 239.229L1004.28 239.24L1004.88 239.368ZM1011.69 239.216L1011.1 239.068L1011.1 239.076L1011.69 239.216ZM1031.99 157.868V157.255H1031.51L1031.4 157.72L1031.99 157.868ZM1056.38 157.868L1056.98 158.018L1057.17 157.255H1056.38V157.868ZM1036.39 237.398L1035.79 237.249L1035.79 237.251L1036.39 237.398ZM1023.96 258.152L1023.58 257.673L1023.96 258.152ZM982.912 258.303L982.415 258.663L982.912 258.303ZM981.245 237.398L981.84 237.548L981.84 237.547L981.245 237.398ZM1001.09 157.868V157.255H1000.61L1000.5 157.72L1001.09 157.868ZM1024.73 157.719L1004.28 239.218L1005.47 239.517L1025.92 158.017L1024.73 157.719ZM1004.28 239.24C1003.92 240.937 1003.88 242.343 1004.31 243.356C1004.54 243.881 1004.88 244.3 1005.36 244.582C1005.83 244.86 1006.39 244.98 1007 244.98V243.754C1006.55 243.754 1006.22 243.665 1005.98 243.526C1005.75 243.391 1005.57 243.186 1005.44 242.877C1005.16 242.224 1005.13 241.131 1005.48 239.495L1004.28 239.24ZM1007 244.98C1008.33 244.98 1009.47 244.478 1010.37 243.492C1011.25 242.526 1011.87 241.127 1012.29 239.356L1011.1 239.076C1010.71 240.739 1010.15 241.915 1009.46 242.666C1008.79 243.397 1007.99 243.754 1007 243.754V244.98ZM1012.29 239.364L1032.59 158.016L1031.4 157.72L1011.1 239.068L1012.29 239.364ZM1031.99 158.481H1056.38V157.255H1031.99V158.481ZM1055.79 157.719L1035.79 237.249L1036.98 237.548L1056.98 158.018L1055.79 157.719ZM1035.79 237.251C1033.6 246.135 1029.52 252.925 1023.58 257.673L1024.35 258.63C1030.53 253.683 1034.73 246.638 1036.98 237.545L1035.79 237.251ZM1023.58 257.673C1017.65 262.42 1010.27 264.81 1001.39 264.81V266.036C1010.5 266.036 1018.16 263.578 1024.35 258.63L1023.58 257.673ZM1001.39 264.81C992.597 264.81 986.676 262.462 983.408 257.944L982.415 258.663C986.014 263.638 992.415 266.036 1001.39 266.036V264.81ZM983.408 257.944C980.132 253.415 979.534 246.67 981.84 237.548L980.651 237.248C978.311 246.507 978.824 253.698 982.415 258.663L983.408 257.944ZM981.84 237.547L1001.68 158.016L1000.5 157.72L980.651 237.25L981.84 237.547ZM1001.09 158.481H1025.33V157.255H1001.09V158.481ZM1105.72 164.836L1105.24 165.216L1105.25 165.221L1105.72 164.836ZM1107.69 186.196L1107.1 186.046L1107.1 186.058L1107.69 186.196ZM1107.24 188.165L1107.83 188.314L1107.84 188.303L1107.24 188.165ZM1103.15 198.921L1103.68 199.223L1103.69 199.216L1103.15 198.921ZM1097.39 206.647L1096.96 206.213L1096.95 206.218L1096.95 206.224L1097.39 206.647ZM1091.18 211.494L1090.9 210.951L1090.89 210.957L1091.18 211.494ZM1085.43 213.312L1085.39 212.7L1084.95 212.724L1084.83 213.151L1085.43 213.312ZM1084.97 214.978L1084.38 214.817L1084.18 215.546L1084.93 215.59L1084.97 214.978ZM1089.82 217.099L1089.42 217.562L1089.43 217.57L1089.44 217.578L1089.82 217.099ZM1093.45 222.25L1092.89 222.482L1092.89 222.493L1092.9 222.503L1093.45 222.25ZM1095.27 230.43L1094.66 230.468L1094.66 230.469L1095.27 230.43ZM1094.06 241.034L1093.47 240.882L1093.47 240.885L1094.06 241.034ZM1093.76 242.246L1094.35 242.398L1094.35 242.394L1093.76 242.246ZM1091.03 253.91L1090.43 253.787L1090.43 253.795L1090.43 253.804L1091.03 253.91ZM1089.82 263.908V264.521H1090.39L1090.43 263.947L1089.82 263.908ZM1065.58 263.908L1064.97 263.87L1064.93 264.521H1065.58V263.908ZM1066.79 253.759L1066.19 253.642L1066.19 253.655L1066.79 253.759ZM1069.52 242.094L1070.11 242.253L1070.11 242.241L1069.52 242.094ZM1072.55 229.824L1071.96 229.668L1071.95 229.677L1072.55 229.824ZM1072.7 225.885L1072.15 226.159L1072.16 226.175L1072.17 226.189L1072.7 225.885ZM1067.25 224.673V224.06H1066.77L1066.65 224.524L1067.25 224.673ZM1057.4 263.908V264.521H1057.88L1057.99 264.057L1057.4 263.908ZM1033.16 263.908L1032.57 263.76L1032.38 264.521H1033.16V263.908ZM1059.67 157.717V157.104H1059.19L1059.08 157.568L1059.67 157.717ZM1072.4 203.617L1071.8 203.468L1071.61 204.23H1072.4V203.617ZM1078.61 202.253L1078.13 201.871L1078.12 201.877L1078.61 202.253ZM1080.43 198.315L1079.83 198.165L1079.83 198.166L1080.43 198.315ZM1084.06 183.924L1083.47 183.76L1083.47 183.767L1083.47 183.774L1084.06 183.924ZM1084.21 179.985L1083.66 180.259V180.259L1084.21 179.985ZM1078.61 178.773V178.16H1078.13L1078.01 178.624L1078.61 178.773ZM1086.64 158.33C1095.53 158.33 1101.67 160.678 1105.24 165.216L1106.21 164.457C1102.3 159.502 1095.72 157.104 1086.64 157.104V158.33ZM1105.25 165.221C1108.8 169.64 1109.51 176.516 1107.1 186.046L1108.29 186.346C1110.73 176.688 1110.12 169.324 1106.2 164.452L1105.25 165.221ZM1107.1 186.058L1106.64 188.027L1107.84 188.303L1108.29 186.334L1107.1 186.058ZM1106.64 188.017C1105.65 192.014 1104.3 195.548 1102.61 198.626L1103.69 199.216C1105.43 196.032 1106.81 192.396 1107.83 188.314L1106.64 188.017ZM1102.62 198.619C1100.92 201.608 1099.04 204.137 1096.96 206.213L1097.83 207.08C1099.99 204.914 1101.94 202.293 1103.68 199.223L1102.62 198.619ZM1096.95 206.224C1094.97 208.307 1092.95 209.877 1090.9 210.951L1091.47 212.037C1093.66 210.889 1095.78 209.228 1097.84 207.069L1096.95 206.224ZM1090.89 210.957C1088.93 212.035 1087.1 212.605 1085.39 212.7L1085.46 213.924C1087.39 213.817 1089.4 213.175 1091.48 212.031L1090.89 210.957ZM1084.83 213.151L1084.38 214.817L1085.56 215.14L1086.02 213.473L1084.83 213.151ZM1084.93 215.59C1086.5 215.682 1087.99 216.323 1089.42 217.562L1090.22 216.636C1088.62 215.25 1086.88 214.477 1085.01 214.366L1084.93 215.59ZM1089.44 217.578C1090.85 218.711 1092.01 220.334 1092.89 222.482L1094.02 222.018C1093.08 219.722 1091.81 217.911 1090.2 216.62L1089.44 217.578ZM1092.9 222.503C1093.87 224.639 1094.46 227.288 1094.66 230.468L1095.88 230.392C1095.68 227.108 1095.06 224.304 1094.01 221.996L1092.9 222.503ZM1094.66 230.469C1094.86 233.52 1094.46 236.988 1093.47 240.882L1094.65 241.186C1095.67 237.202 1096.09 233.601 1095.88 230.39L1094.66 230.469ZM1093.47 240.885L1093.16 242.097L1094.35 242.394L1094.65 241.183L1093.47 240.885ZM1093.16 242.094C1092.05 246.443 1091.14 250.341 1090.43 253.787L1091.63 254.034C1092.33 250.612 1093.24 246.733 1094.35 242.398L1093.16 242.094ZM1090.43 253.804C1089.82 257.258 1089.41 260.614 1089.21 263.87L1090.43 263.947C1090.63 260.739 1091.03 257.43 1091.63 254.017L1090.43 253.804ZM1089.82 263.295H1065.58V264.521H1089.82V263.295ZM1066.19 263.947C1066.39 260.739 1066.79 257.378 1067.4 253.862L1066.19 253.655C1065.58 257.209 1065.17 260.614 1064.97 263.87L1066.19 263.947ZM1067.39 253.876C1068.1 250.256 1069 246.382 1070.11 242.253L1068.93 241.935C1067.81 246.088 1066.9 249.99 1066.19 253.642L1067.39 253.876ZM1070.11 242.241L1073.14 229.971L1071.95 229.677L1068.92 241.947L1070.11 242.241ZM1073.14 229.98C1073.4 228.997 1073.55 228.141 1073.58 227.424C1073.61 226.716 1073.52 226.078 1073.23 225.581L1072.17 226.189C1072.29 226.4 1072.38 226.771 1072.35 227.377C1072.33 227.972 1072.2 228.732 1071.96 229.668L1073.14 229.98ZM1073.25 225.611C1072.68 224.48 1071.4 224.06 1069.82 224.06V225.286C1071.27 225.286 1071.91 225.675 1072.15 226.159L1073.25 225.611ZM1069.82 224.06H1067.25V225.286H1069.82V224.06ZM1066.65 224.524L1056.81 263.759L1057.99 264.057L1067.84 224.823L1066.65 224.524ZM1057.4 263.295H1033.16V264.521H1057.4V263.295ZM1033.76 264.057L1060.27 157.865L1059.08 157.568L1032.57 263.76L1033.76 264.057ZM1059.67 158.33H1086.64V157.104H1059.67V158.33ZM1072.4 204.23H1074.97V203.004H1072.4V204.23ZM1074.97 204.23C1076.78 204.23 1078.22 203.75 1079.09 202.63L1078.12 201.877C1077.58 202.575 1076.6 203.004 1074.97 203.004V204.23ZM1079.09 202.636C1079.96 201.541 1080.6 200.141 1081.02 198.464L1079.83 198.166C1079.44 199.72 1078.87 200.946 1078.13 201.871L1079.09 202.636ZM1081.02 198.465L1084.66 184.074L1083.47 183.774L1079.83 198.165L1081.02 198.465ZM1084.65 184.088C1084.91 183.151 1085.06 182.319 1085.09 181.599C1085.12 180.883 1085.03 180.24 1084.76 179.711L1083.66 180.259C1083.8 180.538 1083.89 180.955 1083.87 181.552C1083.84 182.145 1083.72 182.878 1083.47 183.76L1084.65 184.088ZM1084.76 179.711C1084.2 178.579 1082.91 178.16 1081.33 178.16V179.386C1082.78 179.386 1083.42 179.775 1083.66 180.259L1084.76 179.711ZM1081.33 178.16H1078.61V179.386H1081.33V178.16ZM1078.01 178.624L1071.8 203.468L1072.99 203.766L1079.2 178.922L1078.01 178.624ZM1140.52 194.831L1139.92 194.685L1139.74 195.444H1140.52V194.831ZM1143.55 182.409L1144.14 182.554L1144.14 182.553L1143.55 182.409ZM1136.58 182.56L1137.17 182.712L1137.17 182.701L1136.58 182.56ZM1134.61 190.286L1134.01 190.135L1134.01 190.148L1134.61 190.286ZM1134 193.77L1133.39 193.709L1133.39 193.74V193.77H1134ZM1134.91 196.497L1134.4 196.837L1134.41 196.856L1134.43 196.873L1134.91 196.497ZM1138.09 199.527L1137.71 200.009L1137.73 200.023L1137.75 200.037L1138.09 199.527ZM1144.15 203.314L1143.84 203.839L1143.85 203.847L1143.86 203.854L1144.15 203.314ZM1148.09 205.435L1148.4 204.905L1148.39 204.9L1148.38 204.895L1148.09 205.435ZM1153.7 210.131L1153.21 210.503L1153.22 210.519L1153.23 210.534L1153.7 210.131ZM1156.57 216.039L1155.97 216.169L1155.98 216.175L1156.57 216.039ZM1156.88 224.067L1157.49 224.126L1156.88 224.067ZM1154.76 235.277L1155.35 235.446L1155.35 235.438L1155.35 235.429L1154.76 235.277ZM1154.15 237.398L1153.56 237.23L1153.56 237.24L1153.55 237.251L1154.15 237.398ZM1141.58 258.152L1141.2 257.67L1141.19 257.673L1141.58 258.152ZM1100.37 258.303L1099.88 258.669L1100.37 258.303ZM1098.55 237.398L1099.15 237.548L1099.15 237.545L1098.55 237.398ZM1101.13 226.946V226.333H1100.65L1100.53 226.799L1101.13 226.946ZM1125.37 226.946L1125.96 227.093L1126.15 226.333H1125.37V226.946ZM1122.34 239.216L1122.93 239.373L1122.93 239.363L1122.34 239.216ZM1129.46 239.368L1130.05 239.512L1130.05 239.509L1129.46 239.368ZM1131.43 231.036L1132.02 231.177L1132.02 231.174L1131.43 231.036ZM1131.88 227.703L1131.27 227.635L1131.27 227.669V227.703H1131.88ZM1131.12 225.128L1130.61 225.468L1130.62 225.482L1130.63 225.496L1131.12 225.128ZM1128.25 222.401L1127.87 222.887L1127.88 222.896L1127.9 222.905L1128.25 222.401ZM1122.79 218.765L1123.11 218.242L1123.1 218.237L1123.09 218.232L1122.79 218.765ZM1118.25 216.19L1117.94 216.72L1117.95 216.723L1118.25 216.19ZM1112.49 211.494L1111.99 211.853L1112.01 211.869L1112.02 211.884L1112.49 211.494ZM1109.61 205.283L1109.01 205.408L1109.02 205.423L1109.02 205.438L1109.61 205.283ZM1109.31 196.951L1108.7 196.875L1108.7 196.884L1108.7 196.892L1109.31 196.951ZM1111.58 185.742L1112.18 185.897L1112.18 185.882L1112.18 185.868L1111.58 185.742ZM1112.19 182.863L1111.59 182.715L1111.59 182.726L1111.59 182.737L1112.19 182.863ZM1124.16 163.322L1124.53 163.806L1124.54 163.802L1124.16 163.322ZM1165.21 163.625L1165.69 163.25V163.25L1165.21 163.625ZM1167.48 184.227L1168.07 184.379L1168.08 184.375L1167.48 184.227ZM1164.75 194.831V195.444H1165.23L1165.35 194.983L1164.75 194.831ZM1141.11 194.976L1144.14 182.554L1142.95 182.264L1139.92 194.685L1141.11 194.976ZM1144.14 182.553C1144.55 180.857 1144.62 179.443 1144.19 178.42C1143.96 177.89 1143.6 177.469 1143.11 177.189C1142.63 176.914 1142.05 176.797 1141.43 176.797V178.023C1141.91 178.023 1142.26 178.113 1142.5 178.255C1142.74 178.392 1142.93 178.596 1143.06 178.899C1143.33 179.543 1143.35 180.628 1142.95 182.264L1144.14 182.553ZM1141.43 176.797C1140.05 176.797 1138.88 177.292 1137.95 178.277C1137.04 179.244 1136.4 180.646 1135.98 182.42L1137.17 182.701C1137.56 181.04 1138.14 179.868 1138.84 179.118C1139.53 178.386 1140.38 178.023 1141.43 178.023V176.797ZM1135.98 182.409L1134.01 190.135L1135.2 190.437L1137.17 182.712L1135.98 182.409ZM1134.01 190.148C1133.7 191.479 1133.5 192.667 1133.39 193.709L1134.61 193.831C1134.71 192.854 1134.91 191.719 1135.21 190.424L1134.01 190.148ZM1133.39 193.77C1133.39 194.823 1133.74 195.848 1134.4 196.837L1135.42 196.157C1134.87 195.328 1134.62 194.536 1134.62 193.77H1133.39ZM1134.43 196.873C1135.18 197.837 1136.28 198.882 1137.71 200.009L1138.47 199.045C1137.08 197.95 1136.06 196.975 1135.4 196.121L1134.43 196.873ZM1137.75 200.037C1139.28 201.054 1141.31 202.322 1143.84 203.839L1144.47 202.788C1141.95 201.276 1139.94 200.019 1138.43 199.017L1137.75 200.037ZM1143.86 203.854L1147.8 205.974L1148.38 204.895L1144.44 202.774L1143.86 203.854ZM1147.78 205.964C1150.16 207.349 1151.96 208.866 1153.21 210.503L1154.18 209.758C1152.81 207.962 1150.87 206.348 1148.4 204.905L1147.78 205.964ZM1153.23 210.534C1154.57 212.064 1155.49 213.936 1155.97 216.169L1157.17 215.908C1156.65 213.495 1155.65 211.429 1154.16 209.727L1153.23 210.534ZM1155.98 216.175C1156.46 218.313 1156.57 220.92 1156.27 224.008L1157.49 224.126C1157.79 220.954 1157.7 218.208 1157.17 215.903L1155.98 216.175ZM1156.27 224.008C1155.97 227.098 1155.27 230.802 1154.16 235.126L1155.35 235.429C1156.47 231.068 1157.18 227.299 1157.49 224.126L1156.27 224.008ZM1154.17 235.109L1153.56 237.23L1154.74 237.567L1155.35 235.446L1154.17 235.109ZM1153.55 237.251C1151.36 246.132 1147.23 252.922 1141.2 257.67L1141.96 258.633C1148.24 253.687 1152.5 246.641 1154.75 237.545L1153.55 237.251ZM1141.19 257.673C1135.26 262.42 1127.88 264.81 1119.01 264.81V266.036C1128.11 266.036 1135.77 263.578 1141.96 258.63L1141.19 257.673ZM1119.01 264.81C1110.21 264.81 1104.23 262.462 1100.86 257.937L1099.88 258.669C1103.58 263.637 1110.03 266.036 1119.01 266.036V264.81ZM1100.86 257.937C1097.49 253.409 1096.84 246.667 1099.15 237.548L1097.96 237.248C1095.62 246.51 1096.18 253.705 1099.88 258.669L1100.86 257.937ZM1099.15 237.545L1101.73 227.092L1100.53 226.799L1097.96 237.252L1099.15 237.545ZM1101.13 227.559H1125.37V226.333H1101.13V227.559ZM1124.77 226.799L1121.74 239.069L1122.93 239.363L1125.96 227.093L1124.77 226.799ZM1121.75 239.059C1121.28 240.804 1121.19 242.26 1121.62 243.312C1121.84 243.859 1122.21 244.291 1122.72 244.578C1123.21 244.859 1123.81 244.98 1124.46 244.98V243.754C1123.95 243.754 1123.58 243.659 1123.32 243.511C1123.07 243.369 1122.88 243.157 1122.75 242.846C1122.48 242.182 1122.48 241.061 1122.93 239.373L1121.75 239.059ZM1124.46 244.98C1125.87 244.98 1127.08 244.507 1128.04 243.55C1128.98 242.609 1129.63 241.241 1130.05 239.512L1128.86 239.223C1128.47 240.827 1127.89 241.958 1127.17 242.683C1126.46 243.393 1125.57 243.754 1124.46 243.754V244.98ZM1130.05 239.509L1132.02 231.177L1130.83 230.895L1128.86 239.227L1130.05 239.509ZM1132.02 231.174C1132.33 229.835 1132.49 228.675 1132.49 227.703H1131.27C1131.27 228.549 1131.13 229.611 1130.83 230.898L1132.02 231.174ZM1132.49 227.771C1132.61 226.69 1132.3 225.679 1131.61 224.76L1130.63 225.496C1131.16 226.193 1131.35 226.898 1131.27 227.635L1132.49 227.771ZM1131.63 224.788C1130.97 223.792 1129.94 222.832 1128.59 221.897L1127.9 222.905C1129.17 223.789 1130.07 224.646 1130.61 225.468L1131.63 224.788ZM1128.62 221.915C1127.28 220.886 1125.44 219.661 1123.11 218.242L1122.47 219.289C1124.79 220.698 1126.58 221.896 1127.87 222.887L1128.62 221.915ZM1123.09 218.232L1118.55 215.657L1117.95 216.723L1122.49 219.299L1123.09 218.232ZM1118.56 215.661C1116.18 214.274 1114.32 212.753 1112.96 211.104L1112.02 211.884C1113.49 213.669 1115.47 215.278 1117.94 216.72L1118.56 215.661ZM1112.99 211.135C1111.72 209.383 1110.79 207.383 1110.21 205.128L1109.02 205.438C1109.64 207.829 1110.63 209.969 1111.99 211.853L1112.99 211.135ZM1110.21 205.158C1109.72 202.809 1109.62 200.096 1109.92 197.011L1108.7 196.892C1108.39 200.069 1108.49 202.91 1109.01 205.408L1110.21 205.158ZM1109.92 197.027C1110.32 193.83 1111.07 190.121 1112.18 185.897L1110.99 185.586C1109.87 189.846 1109.11 193.61 1108.7 196.875L1109.92 197.027ZM1112.18 185.868L1112.79 182.99L1111.59 182.737L1110.98 185.615L1112.18 185.868ZM1112.78 183.012C1114.88 174.637 1118.8 168.252 1124.53 163.806L1123.78 162.837C1117.8 167.481 1113.74 174.123 1111.59 182.715L1112.78 183.012ZM1124.54 163.802C1130.27 159.257 1137.45 156.966 1146.12 156.966V155.74C1137.22 155.74 1129.76 158.095 1123.77 162.841L1124.54 163.802ZM1146.12 156.966C1155.01 156.966 1161.15 159.362 1164.72 163.999L1165.69 163.25C1161.79 158.192 1155.21 155.74 1146.12 155.74V156.966ZM1164.72 163.999C1168.3 168.636 1169.09 175.28 1166.89 184.078L1168.08 184.375C1170.32 175.399 1169.59 168.308 1165.69 163.25L1164.72 163.999ZM1166.89 184.074L1164.16 194.678L1165.35 194.983L1168.07 184.379L1166.89 184.074ZM1164.75 194.218H1140.52V195.444H1164.75V194.218ZM1196.51 178.925V178.312H1196.03L1195.92 178.776L1196.51 178.925ZM1191.82 197.709L1191.22 197.56L1191.03 198.322H1191.82V197.709ZM1206.36 197.709L1206.95 197.855L1207.14 197.096H1206.36V197.709ZM1201.21 218.765V219.378H1201.69L1201.8 218.911L1201.21 218.765ZM1186.67 218.765V218.152H1186.19L1186.07 218.616L1186.67 218.765ZM1180.61 242.852L1180.01 242.702L1179.82 243.465H1180.61V242.852ZM1195.45 242.852L1196.05 242.997L1196.23 242.239H1195.45V242.852ZM1190.3 263.908V264.521H1190.78L1190.9 264.054L1190.3 263.908ZM1151.22 263.908L1150.62 263.76L1150.43 264.521H1151.22V263.908ZM1177.58 157.868V157.255H1177.1L1176.98 157.72L1177.58 157.868ZM1216.51 157.868L1217.1 158.014L1217.29 157.255H1216.51V157.868ZM1211.36 178.925V179.538H1211.84L1211.95 179.07L1211.36 178.925ZM1195.92 178.776L1191.22 197.56L1192.41 197.858L1197.11 179.073L1195.92 178.776ZM1191.82 198.322H1206.36V197.096H1191.82V198.322ZM1205.76 197.563L1200.61 218.62L1201.8 218.911L1206.95 197.855L1205.76 197.563ZM1201.21 218.152H1186.67V219.378H1201.21V218.152ZM1186.07 218.616L1180.01 242.702L1181.2 243.001L1187.26 218.915L1186.07 218.616ZM1180.61 243.465H1195.45V242.239H1180.61V243.465ZM1194.86 242.706L1189.71 263.763L1190.9 264.054L1196.05 242.997L1194.86 242.706ZM1190.3 263.295H1151.22V264.521H1190.3V263.295ZM1151.81 264.056L1178.17 158.016L1176.98 157.72L1150.62 263.76L1151.81 264.056ZM1177.58 158.481H1216.51V157.255H1177.58V158.481ZM1215.91 157.722L1210.76 178.779L1211.95 179.07L1217.1 158.014L1215.91 157.722ZM1211.36 178.312H1196.51V179.538H1211.36V178.312ZM1242 194.831L1241.4 194.685L1241.22 195.444H1242V194.831ZM1245.03 182.409L1245.63 182.554L1245.63 182.553L1245.03 182.409ZM1238.06 182.56L1238.66 182.712L1238.66 182.701L1238.06 182.56ZM1236.09 190.286L1235.5 190.135L1235.49 190.148L1236.09 190.286ZM1235.49 193.77L1234.88 193.709L1234.87 193.74V193.77H1235.49ZM1236.4 196.497L1235.89 196.837L1235.9 196.856L1235.91 196.873L1236.4 196.497ZM1239.58 199.527L1239.2 200.009L1239.22 200.023L1239.24 200.037L1239.58 199.527ZM1245.64 203.314L1245.32 203.839L1245.33 203.847L1245.35 203.854L1245.64 203.314ZM1249.57 205.435L1249.88 204.905L1249.87 204.9L1249.86 204.895L1249.57 205.435ZM1255.18 210.131L1254.69 210.503L1254.7 210.519L1254.72 210.534L1255.18 210.131ZM1258.06 216.039L1257.46 216.169L1257.46 216.175L1258.06 216.039ZM1258.36 224.067L1258.97 224.126L1258.36 224.067ZM1256.24 235.277L1256.83 235.446L1256.83 235.438L1256.83 235.429L1256.24 235.277ZM1255.63 237.398L1255.04 237.23L1255.04 237.24L1255.04 237.251L1255.63 237.398ZM1243.06 258.152L1242.68 257.67L1242.68 257.673L1243.06 258.152ZM1201.86 258.303L1201.36 258.669L1201.86 258.303ZM1200.04 237.398L1200.63 237.548L1200.63 237.545L1200.04 237.398ZM1202.61 226.946V226.333H1202.13L1202.02 226.799L1202.61 226.946ZM1226.85 226.946L1227.45 227.093L1227.63 226.333H1226.85V226.946ZM1223.82 239.216L1224.41 239.373L1224.42 239.363L1223.82 239.216ZM1230.94 239.368L1231.54 239.512L1231.54 239.509L1230.94 239.368ZM1232.91 231.036L1233.51 231.177L1233.51 231.174L1232.91 231.036ZM1233.37 227.703L1232.76 227.635L1232.75 227.669V227.703H1233.37ZM1232.61 225.128L1232.1 225.468L1232.11 225.482L1232.12 225.496L1232.61 225.128ZM1229.73 222.401L1229.36 222.887L1229.37 222.896L1229.38 222.905L1229.73 222.401ZM1224.28 218.765L1224.59 218.242L1224.59 218.237L1224.58 218.232L1224.28 218.765ZM1219.73 216.19L1219.42 216.72L1219.43 216.723L1219.73 216.19ZM1213.98 211.494L1213.48 211.853L1213.49 211.869L1213.5 211.884L1213.98 211.494ZM1211.1 205.283L1210.5 205.408L1210.5 205.423L1210.5 205.438L1211.1 205.283ZM1210.79 196.951L1210.19 196.875L1210.18 196.884L1210.18 196.892L1210.79 196.951ZM1213.07 185.742L1213.66 185.897L1213.66 185.882L1213.67 185.868L1213.07 185.742ZM1213.67 182.863L1213.08 182.715L1213.07 182.726L1213.07 182.737L1213.67 182.863ZM1225.64 163.322L1226.02 163.806L1226.02 163.802L1225.64 163.322ZM1266.69 163.625L1267.18 163.25V163.25L1266.69 163.625ZM1268.96 184.227L1269.56 184.379L1269.56 184.375L1268.96 184.227ZM1266.24 194.831V195.444H1266.71L1266.83 194.983L1266.24 194.831ZM1242.6 194.976L1245.63 182.554L1244.43 182.264L1241.4 194.685L1242.6 194.976ZM1245.63 182.553C1246.04 180.857 1246.1 179.443 1245.67 178.42C1245.44 177.89 1245.09 177.469 1244.59 177.189C1244.11 176.914 1243.54 176.797 1242.91 176.797V178.023C1243.39 178.023 1243.74 178.113 1243.99 178.255C1244.23 178.392 1244.41 178.596 1244.54 178.899C1244.81 179.543 1244.83 180.628 1244.43 182.264L1245.63 182.553ZM1242.91 176.797C1241.53 176.797 1240.36 177.292 1239.43 178.277C1238.52 179.244 1237.88 180.646 1237.46 182.42L1238.66 182.701C1239.05 181.04 1239.62 179.868 1240.33 179.118C1241.01 178.386 1241.86 178.023 1242.91 178.023V176.797ZM1237.47 182.409L1235.5 190.135L1236.69 190.437L1238.66 182.712L1237.47 182.409ZM1235.49 190.148C1235.19 191.479 1234.98 192.667 1234.88 193.709L1236.1 193.831C1236.19 192.854 1236.39 191.719 1236.69 190.424L1235.49 190.148ZM1234.87 193.77C1234.87 194.823 1235.23 195.848 1235.89 196.837L1236.91 196.157C1236.35 195.328 1236.1 194.536 1236.1 193.77H1234.87ZM1235.91 196.873C1236.66 197.837 1237.76 198.882 1239.2 200.009L1239.95 199.045C1238.56 197.95 1237.54 196.975 1236.88 196.121L1235.91 196.873ZM1239.24 200.037C1240.76 201.054 1242.79 202.322 1245.32 203.839L1245.95 202.788C1243.43 201.276 1241.42 200.019 1239.92 199.017L1239.24 200.037ZM1245.35 203.854L1249.28 205.974L1249.86 204.895L1245.93 202.774L1245.35 203.854ZM1249.27 205.964C1251.64 207.349 1253.44 208.866 1254.69 210.503L1255.67 209.758C1254.29 207.962 1252.36 206.348 1249.88 204.905L1249.27 205.964ZM1254.72 210.534C1256.06 212.064 1256.97 213.936 1257.46 216.169L1258.66 215.908C1258.13 213.495 1257.13 211.429 1255.64 209.727L1254.72 210.534ZM1257.46 216.175C1257.95 218.313 1258.05 220.92 1257.75 224.008L1258.97 224.126C1259.28 220.954 1259.18 218.208 1258.66 215.903L1257.46 216.175ZM1257.75 224.008C1257.45 227.098 1256.75 230.802 1255.65 235.126L1256.83 235.429C1257.95 231.068 1258.66 227.299 1258.97 224.126L1257.75 224.008ZM1255.65 235.109L1255.04 237.23L1256.22 237.567L1256.83 235.446L1255.65 235.109ZM1255.04 237.251C1252.84 246.132 1248.72 252.922 1242.68 257.67L1243.44 258.633C1249.73 253.687 1253.98 246.641 1256.23 237.545L1255.04 237.251ZM1242.68 257.673C1236.74 262.42 1229.36 264.81 1220.49 264.81V266.036C1229.59 266.036 1237.26 263.578 1243.44 258.63L1242.68 257.673ZM1220.49 264.81C1211.69 264.81 1205.72 262.462 1202.35 257.937L1201.36 258.669C1205.06 263.637 1211.51 266.036 1220.49 266.036V264.81ZM1202.35 257.937C1198.98 253.409 1198.33 246.667 1200.63 237.548L1199.44 237.248C1197.1 246.51 1197.67 253.705 1201.36 258.669L1202.35 257.937ZM1200.63 237.545L1203.21 227.092L1202.02 226.799L1199.44 237.252L1200.63 237.545ZM1202.61 227.559H1226.85V226.333H1202.61V227.559ZM1226.26 226.799L1223.23 239.069L1224.42 239.363L1227.45 227.093L1226.26 226.799ZM1223.23 239.059C1222.77 240.804 1222.67 242.26 1223.1 243.312C1223.33 243.859 1223.7 244.291 1224.2 244.578C1224.7 244.859 1225.29 244.98 1225.94 244.98V243.754C1225.43 243.754 1225.07 243.659 1224.81 243.511C1224.55 243.369 1224.37 243.157 1224.24 242.846C1223.96 242.182 1223.97 241.061 1224.41 239.373L1223.23 239.059ZM1225.94 244.98C1227.35 244.98 1228.56 244.507 1229.52 243.55C1230.46 242.609 1231.12 241.241 1231.54 239.512L1230.35 239.223C1229.96 240.827 1229.38 241.958 1228.65 242.683C1227.94 243.393 1227.06 243.754 1225.94 243.754V244.98ZM1231.54 239.509L1233.51 231.177L1232.31 230.895L1230.35 239.227L1231.54 239.509ZM1233.51 231.174C1233.82 229.835 1233.98 228.675 1233.98 227.703H1232.75C1232.75 228.549 1232.61 229.611 1232.31 230.898L1233.51 231.174ZM1233.97 227.771C1234.09 226.69 1233.79 225.679 1233.1 224.76L1232.12 225.496C1232.64 226.193 1232.84 226.898 1232.76 227.635L1233.97 227.771ZM1233.12 224.788C1232.45 223.792 1231.43 222.832 1230.08 221.897L1229.38 222.905C1230.66 223.789 1231.55 224.646 1232.1 225.468L1233.12 224.788ZM1230.1 221.915C1228.77 220.886 1226.93 219.661 1224.59 218.242L1223.96 219.289C1226.27 220.698 1228.07 221.896 1229.36 222.887L1230.1 221.915ZM1224.58 218.232L1220.03 215.657L1219.43 216.723L1223.97 219.299L1224.58 218.232ZM1220.04 215.661C1217.66 214.274 1215.81 212.753 1214.45 211.104L1213.5 211.884C1214.97 213.669 1216.95 215.278 1219.42 216.72L1220.04 215.661ZM1214.47 211.135C1213.21 209.383 1212.28 207.383 1211.69 205.128L1210.5 205.438C1211.13 207.829 1212.12 209.969 1213.48 211.853L1214.47 211.135ZM1211.7 205.158C1211.21 202.809 1211.11 200.096 1211.4 197.011L1210.18 196.892C1209.88 200.069 1209.98 202.91 1210.5 205.408L1211.7 205.158ZM1211.4 197.027C1211.8 193.83 1212.55 190.121 1213.66 185.897L1212.47 185.586C1211.36 189.846 1210.59 193.61 1210.19 196.875L1211.4 197.027ZM1213.67 185.868L1214.27 182.99L1213.07 182.737L1212.47 185.615L1213.67 185.868ZM1214.27 183.012C1216.36 174.637 1220.28 168.252 1226.02 163.806L1225.26 162.837C1219.28 167.481 1215.23 174.123 1213.08 182.715L1214.27 183.012ZM1226.02 163.802C1231.75 159.257 1238.93 156.966 1247.6 156.966V155.74C1238.71 155.74 1231.24 158.095 1225.26 162.841L1226.02 163.802ZM1247.6 156.966C1256.5 156.966 1262.63 159.362 1266.21 163.999L1267.18 163.25C1263.28 158.192 1256.69 155.74 1247.6 155.74V156.966ZM1266.21 163.999C1269.78 168.636 1270.57 175.28 1268.37 184.078L1269.56 184.375C1271.8 175.399 1271.08 168.308 1267.18 163.25L1266.21 163.999ZM1268.37 184.074L1265.64 194.678L1266.83 194.983L1269.56 184.379L1268.37 184.074ZM1266.24 194.218H1242V195.444H1266.24V194.218Z" fill="white" mask="url(#path-1-outside-1_41_300)"/>
<path d="M960.804 227.749C961.817 223.555 963.661 220.399 966.334 218.279C969.007 216.113 972.371 215.03 976.426 215.03C980.528 215.03 983.431 216.136 985.136 218.348C986.841 220.56 987.187 223.694 986.173 227.749L980.09 252.012C979.076 256.114 977.163 259.271 974.352 261.483C971.587 263.695 968.154 264.801 964.053 264.801C959.997 264.801 957.163 263.718 955.55 261.552C953.937 259.386 953.661 256.206 954.72 252.012L960.804 227.749ZM965.573 252.911C965.159 254.432 965.481 255.192 966.541 255.192C967.693 255.192 968.454 254.432 968.822 252.911L975.32 226.919C975.643 225.399 975.297 224.638 974.283 224.638C973.177 224.638 972.44 225.399 972.071 226.919L965.573 252.911ZM1004.61 215.721L995.273 252.911C994.951 254.432 995.273 255.192 996.241 255.192C997.301 255.192 998.015 254.409 998.384 252.842L1007.65 215.721H1018.78L1009.65 252.012C1008.64 256.114 1006.75 259.271 1003.98 261.483C1001.22 263.695 997.785 264.801 993.683 264.801C989.628 264.801 986.817 263.718 985.25 261.552C983.683 259.386 983.43 256.206 984.49 252.012L993.545 215.721H1004.61ZM1035.35 215.652C1039.45 215.652 1042.35 216.735 1044.06 218.901C1045.76 221.021 1046.06 224.27 1044.96 228.648L1044.75 229.546C1044.29 231.39 1043.67 233.026 1042.88 234.454C1042.1 235.837 1041.22 237.012 1040.26 237.98C1039.33 238.947 1038.39 239.685 1037.42 240.192C1036.5 240.699 1035.62 240.975 1034.79 241.021L1034.59 241.782C1035.37 241.828 1036.11 242.15 1036.8 242.749C1037.49 243.302 1038.04 244.086 1038.46 245.1C1038.92 246.114 1039.2 247.358 1039.29 248.833C1039.38 250.261 1039.2 251.874 1038.73 253.671L1038.6 254.224C1038.09 256.206 1037.67 257.98 1037.35 259.547C1037.08 261.114 1036.89 262.635 1036.8 264.109H1025.74C1025.83 262.635 1026.02 261.091 1026.29 259.478C1026.61 257.819 1027.03 256.045 1027.54 254.155L1028.92 248.556C1029.15 247.68 1029.17 247.081 1028.99 246.759C1028.8 246.39 1028.37 246.206 1027.67 246.206H1026.5L1022.01 264.109H1010.95L1023.04 215.652H1035.35ZM1028.85 236.597H1030.02C1030.81 236.597 1031.36 236.39 1031.68 235.975C1032.05 235.514 1032.33 234.915 1032.51 234.178L1034.17 227.611C1034.4 226.781 1034.43 226.182 1034.24 225.813C1034.06 225.445 1033.62 225.26 1032.93 225.26H1031.68L1028.85 236.597ZM1068.58 252.911C1068.25 254.432 1068.6 255.192 1069.61 255.192C1070.77 255.192 1071.5 254.432 1071.83 252.911L1074.73 241.229H1085.86L1083.16 252.081C1082.1 256.137 1080.17 259.271 1077.36 261.483C1074.59 263.695 1071.16 264.801 1067.06 264.801C1063 264.801 1060.17 263.718 1058.55 261.552C1056.99 259.386 1056.71 256.229 1057.72 252.081L1063.81 227.749C1064.87 223.601 1066.73 220.468 1069.41 218.348C1072.08 216.182 1075.44 215.099 1079.5 215.099C1083.6 215.099 1086.48 216.205 1088.14 218.417C1089.84 220.583 1090.19 223.694 1089.18 227.749L1086.48 238.671H1075.42L1078.32 226.989C1078.74 225.422 1078.39 224.638 1077.29 224.638C1076.23 224.638 1075.49 225.422 1075.07 226.989L1068.58 252.911ZM1093.51 227.749C1094.52 223.555 1096.36 220.399 1099.04 218.279C1101.71 216.113 1105.07 215.03 1109.13 215.03C1113.23 215.03 1116.13 216.136 1117.84 218.348C1119.54 220.56 1119.89 223.694 1118.88 227.749L1112.79 252.012C1111.78 256.114 1109.87 259.271 1107.06 261.483C1104.29 263.695 1100.86 264.801 1096.76 264.801C1092.7 264.801 1089.87 263.718 1088.25 261.552C1086.64 259.386 1086.36 256.206 1087.42 252.012L1093.51 227.749ZM1098.28 252.911C1097.86 254.432 1098.18 255.192 1099.24 255.192C1100.4 255.192 1101.16 254.432 1101.53 252.911L1108.02 226.919C1108.35 225.399 1108 224.638 1106.99 224.638C1105.88 224.638 1105.14 225.399 1104.77 226.919L1098.28 252.911ZM1137.31 215.721L1127.98 252.911C1127.65 254.432 1127.98 255.192 1128.94 255.192C1130 255.192 1130.72 254.409 1131.09 252.842L1140.35 215.721H1151.48L1142.36 252.012C1141.34 256.114 1139.45 259.271 1136.69 261.483C1133.92 263.695 1130.49 264.801 1126.39 264.801C1122.33 264.801 1119.52 263.718 1117.95 261.552C1116.39 259.386 1116.13 256.206 1117.19 252.012L1126.25 215.721H1137.31ZM1168.05 215.652C1172.15 215.652 1175.06 216.735 1176.76 218.901C1178.47 221.021 1178.77 224.27 1177.66 228.648L1177.45 229.546C1176.99 231.39 1176.37 233.026 1175.59 234.454C1174.8 235.837 1173.93 237.012 1172.96 237.98C1172.04 238.947 1171.09 239.685 1170.12 240.192C1169.2 240.699 1168.33 240.975 1167.5 241.021L1167.29 241.782C1168.07 241.828 1168.81 242.15 1169.5 242.749C1170.19 243.302 1170.75 244.086 1171.16 245.1C1171.62 246.114 1171.9 247.358 1171.99 248.833C1172.08 250.261 1171.9 251.874 1171.44 253.671L1171.3 254.224C1170.79 256.206 1170.38 257.98 1170.06 259.547C1169.78 261.114 1169.59 262.635 1169.5 264.109H1158.44C1158.53 262.635 1158.72 261.091 1159 259.478C1159.32 257.819 1159.73 256.045 1160.24 254.155L1161.62 248.556C1161.85 247.68 1161.88 247.081 1161.69 246.759C1161.51 246.39 1161.07 246.206 1160.38 246.206H1159.2L1154.71 264.109H1143.65L1155.75 215.652H1168.05ZM1161.55 236.597H1162.73C1163.51 236.597 1164.06 236.39 1164.39 235.975C1164.76 235.514 1165.03 234.915 1165.22 234.178L1166.88 227.611C1167.11 226.781 1167.13 226.182 1166.94 225.813C1166.76 225.445 1166.32 225.26 1165.63 225.26H1164.39L1161.55 236.597ZM1195.4 232.588L1196.78 226.919C1197.15 225.399 1196.83 224.638 1195.82 224.638C1194.71 224.638 1193.97 225.422 1193.6 226.989L1192.71 230.514C1192.57 231.113 1192.48 231.643 1192.43 232.104C1192.43 232.519 1192.57 232.933 1192.84 233.348C1193.17 233.763 1193.65 234.224 1194.3 234.731C1194.99 235.192 1195.91 235.768 1197.06 236.459L1198.86 237.427C1199.96 238.072 1200.82 238.786 1201.42 239.57C1202.06 240.307 1202.5 241.206 1202.73 242.266C1202.96 243.279 1203.01 244.501 1202.87 245.929C1202.73 247.358 1202.41 249.063 1201.9 251.045L1201.62 252.012C1200.61 256.114 1198.7 259.271 1195.89 261.483C1193.12 263.695 1189.69 264.801 1185.59 264.801C1181.53 264.801 1178.7 263.718 1177.08 261.552C1175.47 259.386 1175.19 256.206 1176.25 252.012L1177.43 247.243H1188.49L1187.11 252.842C1186.69 254.409 1187.01 255.192 1188.07 255.192C1189.23 255.192 1189.99 254.432 1190.36 252.911L1191.25 249.109C1191.39 248.51 1191.46 248.003 1191.46 247.588C1191.51 247.173 1191.39 246.782 1191.12 246.413C1190.84 245.998 1190.4 245.584 1189.8 245.169C1189.2 244.708 1188.37 244.155 1187.31 243.51L1185.24 242.335C1184.13 241.689 1183.26 240.975 1182.61 240.192C1182.01 239.362 1181.58 238.417 1181.3 237.358C1181.07 236.252 1181.02 234.984 1181.16 233.556C1181.35 232.081 1181.69 230.376 1182.2 228.44L1182.48 227.127C1183.44 223.256 1185.26 220.283 1187.94 218.21C1190.61 216.09 1193.95 215.03 1197.96 215.03C1202.06 215.03 1204.96 216.136 1206.67 218.348C1208.37 220.56 1208.72 223.694 1207.71 227.749L1206.46 232.588H1195.4ZM1223.72 225.33L1221.58 233.901H1228.21L1225.86 243.51H1219.23L1216.46 254.501H1223.24L1220.89 264.109H1203.05L1215.08 215.721H1232.84L1230.49 225.33H1223.72ZM1247.24 232.588L1248.62 226.919C1248.99 225.399 1248.67 224.638 1247.66 224.638C1246.55 224.638 1245.81 225.422 1245.44 226.989L1244.55 230.514C1244.41 231.113 1244.32 231.643 1244.27 232.104C1244.27 232.519 1244.41 232.933 1244.68 233.348C1245.01 233.763 1245.49 234.224 1246.14 234.731C1246.83 235.192 1247.75 235.768 1248.9 236.459L1250.7 237.427C1251.8 238.072 1252.66 238.786 1253.26 239.57C1253.9 240.307 1254.34 241.206 1254.57 242.266C1254.8 243.279 1254.85 244.501 1254.71 245.929C1254.57 247.358 1254.25 249.063 1253.74 251.045L1253.46 252.012C1252.45 256.114 1250.54 259.271 1247.73 261.483C1244.96 263.695 1241.53 264.801 1237.43 264.801C1233.37 264.801 1230.54 263.718 1228.92 261.552C1227.31 259.386 1227.03 256.206 1228.09 252.012L1229.27 247.243H1240.33L1238.95 252.842C1238.53 254.409 1238.85 255.192 1239.91 255.192C1241.07 255.192 1241.83 254.432 1242.2 252.911L1243.09 249.109C1243.23 248.51 1243.3 248.003 1243.3 247.588C1243.35 247.173 1243.23 246.782 1242.96 246.413C1242.68 245.998 1242.24 245.584 1241.64 245.169C1241.04 244.708 1240.21 244.155 1239.15 243.51L1237.08 242.335C1235.97 241.689 1235.1 240.975 1234.45 240.192C1233.85 239.362 1233.42 238.417 1233.14 237.358C1232.91 236.252 1232.86 234.984 1233 233.556C1233.19 232.081 1233.53 230.376 1234.04 228.44L1234.31 227.127C1235.28 223.256 1237.1 220.283 1239.78 218.21C1242.45 216.09 1245.79 215.03 1249.8 215.03C1253.9 215.03 1256.8 216.136 1258.51 218.348C1260.21 220.56 1260.56 223.694 1259.55 227.749L1258.3 232.588H1247.24Z" fill="white"/>
<path d="M-28.6667 198.908C-28.6667 200.381 -27.4728 201.575 -26 201.575C-24.5272 201.575 -23.3333 200.381 -23.3333 198.908C-23.3333 197.436 -24.5272 196.242 -26 196.242C-27.4728 196.242 -28.6667 197.436 -28.6667 198.908ZM409.833 188.408C409.833 189.881 411.027 191.075 412.5 191.075C413.973 191.075 415.167 189.881 415.167 188.408C415.167 186.936 413.973 185.742 412.5 185.742C411.027 185.742 409.833 186.936 409.833 188.408ZM364.833 178.408C364.833 179.881 366.027 181.075 367.5 181.075C368.973 181.075 370.167 179.881 370.167 178.408C370.167 176.936 368.973 175.742 367.5 175.742C366.027 175.742 364.833 176.936 364.833 178.408ZM232 160.908V160.408H231.833L231.7 160.508L232 160.908ZM405 160.908L405.208 160.453L405.109 160.408H405V160.908ZM428 171.408L427.792 171.863L427.891 171.908H428V171.408ZM455.333 171.408C455.333 172.881 456.527 174.075 458 174.075C459.473 174.075 460.667 172.881 460.667 171.408C460.667 169.936 459.473 168.742 458 168.742C456.527 168.742 455.333 169.936 455.333 171.408ZM292.75 178.408L292.645 178.897L292.697 178.908H292.75V178.408ZM260 171.408L260.105 170.919L260.053 170.908H260V171.408ZM82 198.908V199.408H82.0645L82.1269 199.392L82 198.908ZM122 188.408V187.908H121.935L121.873 187.925L122 188.408ZM330.833 209.408C330.833 210.881 332.027 212.075 333.5 212.075C334.973 212.075 336.167 210.881 336.167 209.408C336.167 207.936 334.973 206.742 333.5 206.742C332.027 206.742 330.833 207.936 330.833 209.408ZM265 228.408L264.751 228.842L264.866 228.908H265V228.408ZM303.5 228.408L303.903 228.112L303.753 227.908H303.5V228.408ZM409.833 245.408C409.833 246.881 411.027 248.075 412.5 248.075C413.973 248.075 415.167 246.881 415.167 245.408C415.167 243.936 413.973 242.742 412.5 242.742C411.027 242.742 409.833 243.936 409.833 245.408ZM329 264.408L328.587 264.691L328.736 264.908H329V264.408ZM374.333 264.408C374.333 265.881 375.527 267.075 377 267.075C378.473 267.075 379.667 265.881 379.667 264.408C379.667 262.936 378.473 261.742 377 261.742C375.527 261.742 374.333 262.936 374.333 264.408ZM193 188.908H412.5V187.908H193V188.908ZM193.281 188.822L218.281 171.822L217.719 170.995L192.719 187.995L193.281 188.822ZM218.3 171.808L232.3 161.308L231.7 160.508L217.7 171.008L218.3 171.808ZM232 161.408H405V160.408H232V161.408ZM404.792 161.363L427.792 171.863L428.208 170.953L405.208 160.453L404.792 161.363ZM428 171.908H458V170.908H428V171.908ZM292.75 178.908H367.5V177.908H292.75V178.908ZM218 171.908H260V170.908H218V171.908ZM259.895 171.897L292.645 178.897L292.855 177.919L260.105 170.919L259.895 171.897ZM-26 199.408H82V198.408H-26V199.408ZM82.1269 199.392L122.127 188.892L121.873 187.925L81.8731 198.425L82.1269 199.392ZM122 188.908H193V187.908H122V188.908ZM192.763 188.848L231.763 209.848L232.237 208.968L193.237 187.968L192.763 188.848ZM232 209.908H333.5V208.908H232V209.908ZM231.751 209.842L264.751 228.842L265.249 227.975L232.249 208.975L231.751 209.842ZM265 228.908H303.5V227.908H265V228.908ZM303.097 228.704L315.597 245.704L316.403 245.112L303.903 228.112L303.097 228.704ZM316 245.908H412.5V244.908H316V245.908ZM315.587 245.691L328.587 264.691L329.413 264.126L316.413 245.126L315.587 245.691ZM329 264.908H377V263.908H329V264.908Z" fill="#DD5C2C"/>
<path d="M1512.67 47.7246C1512.67 46.2519 1511.47 45.058 1510 45.058C1508.53 45.058 1507.33 46.2519 1507.33 47.7246C1507.33 49.1974 1508.53 50.3913 1510 50.3913C1511.47 50.3913 1512.67 49.1974 1512.67 47.7246ZM1074.17 58.2754C1074.17 56.8026 1072.97 55.6087 1071.5 55.6087C1070.03 55.6087 1068.83 56.8026 1068.83 58.2754C1068.83 59.7481 1070.03 60.942 1071.5 60.942C1072.97 60.942 1074.17 59.7481 1074.17 58.2754ZM1266 75.3575V75.8575H1266.15L1266.28 75.7703L1266 75.3575ZM1119.17 68.3237C1119.17 66.8509 1117.97 65.657 1116.5 65.657C1115.03 65.657 1113.83 66.8509 1113.83 68.3237C1113.83 69.7964 1115.03 70.9903 1116.5 70.9903C1117.97 70.9903 1119.17 69.7964 1119.17 68.3237ZM1191.25 68.3237L1191.35 67.8348L1191.3 67.8237H1191.25V68.3237ZM1224 75.3575L1223.9 75.8463L1223.95 75.8575H1224V75.3575ZM1402 47.7246V47.2246H1401.94L1401.87 47.2412L1402 47.7246ZM1362 58.2754V58.7754H1362.06L1362.13 58.7588L1362 58.2754ZM1153.17 37.1739C1153.17 35.7011 1151.97 34.5072 1150.5 34.5072C1149.03 34.5072 1147.83 35.7011 1147.83 37.1739C1147.83 38.6467 1149.03 39.8406 1150.5 39.8406C1151.97 39.8406 1153.17 38.6467 1153.17 37.1739ZM1219 18.0821L1219.25 17.6493L1219.13 17.5821H1219V18.0821ZM1180.5 18.0821L1180.1 18.3774L1180.25 18.5821H1180.5V18.0821ZM1168 1L1168.4 0.704735L1168.25 0.5H1168V1ZM1132 1V0.5H1131.88L1131.77 0.558601L1132 1ZM1026.67 11.9083C1026.67 10.4355 1025.47 9.2416 1024 9.2416C1022.53 9.2416 1021.33 10.4355 1021.33 11.9083C1021.33 13.381 1022.53 14.5749 1024 14.5749C1025.47 14.5749 1026.67 13.381 1026.67 11.9083ZM1111.5 11.9083V12.4083H1111.62L1111.73 12.3497L1111.5 11.9083ZM1291 57.7754H1071.5V58.7754H1291V57.7754ZM1290.72 57.8625L1265.72 74.9447L1266.28 75.7703L1291.28 58.6882L1290.72 57.8625ZM1191.25 67.8237H1116.5V68.8237H1191.25V67.8237ZM1266 74.8575H1224V75.8575H1266V74.8575ZM1224.1 74.8686L1191.35 67.8348L1191.15 68.8125L1223.9 75.8463L1224.1 74.8686ZM1510 47.2246H1402V48.2246H1510V47.2246ZM1401.87 47.2412L1361.87 57.7919L1362.13 58.7588L1402.13 48.2081L1401.87 47.2412ZM1362 57.7754H1291V58.7754H1362V57.7754ZM1291.24 57.8356L1252.24 36.7341L1251.76 37.6137L1290.76 58.7151L1291.24 57.8356ZM1252 36.6739H1150.5V37.6739H1252V36.6739ZM1252.25 36.7411L1219.25 17.6493L1218.75 18.5149L1251.75 37.6067L1252.25 36.7411ZM1219 17.5821H1180.5V18.5821H1219V17.5821ZM1180.9 17.7869L1168.4 0.704735L1167.6 1.29527L1180.1 18.3774L1180.9 17.7869ZM1168 0.5H1132V1.5H1168V0.5ZM1131.77 0.558601L1111.27 11.4669L1111.73 12.3497L1132.23 1.4414L1131.77 0.558601ZM1111.5 11.4083H1024V12.4083H1111.5V11.4083Z" fill="#DD5C2C"/>
<g opacity="0.6">
<path d="M1214.12 593.006L1214.66 594.335L1206.07 599.715L1212.17 603.041L1210.71 604.62L1204.07 600.87L1204.6 599.029L1214.12 593.006ZM1221.77 588.957L1220.07 594.891C1220.67 594.276 1221.32 593.789 1222.02 593.429C1222.72 593.061 1223.4 592.832 1224.05 592.741C1225.11 592.591 1225.82 592.764 1226.16 593.259C1226.51 593.747 1226.54 594.492 1226.25 595.495L1224 603.342L1221.98 603.626L1224.18 595.953C1224.36 595.305 1224.35 594.858 1224.15 594.612C1223.95 594.359 1223.54 594.275 1222.92 594.362C1222.53 594.417 1222.13 594.555 1221.72 594.776C1221.32 594.996 1220.94 595.259 1220.57 595.566C1220.21 595.866 1219.89 596.169 1219.62 596.476L1217.38 604.272L1215.36 604.557L1219.69 589.456L1221.77 588.957ZM1237.18 600.96C1236.71 601.261 1236.18 601.522 1235.59 601.743C1234.99 601.971 1234.41 602.124 1233.86 602.202C1232.62 602.376 1231.76 602.196 1231.28 601.661C1230.81 601.125 1230.71 600.356 1231 599.353L1232.77 593.174L1230.25 593.528L1230.68 592.055L1233.2 591.701L1233.89 589.266L1235.99 588.746L1235.22 591.416L1239.01 590.883L1238.36 592.389L1234.8 592.89L1233.03 599.049C1232.86 599.642 1232.89 600.067 1233.11 600.324C1233.34 600.579 1233.82 600.656 1234.55 600.553C1234.97 600.495 1235.36 600.394 1235.73 600.25C1236.1 600.106 1236.46 599.938 1236.8 599.747L1237.18 600.96ZM1251.27 588.915C1251.66 588.86 1251.99 588.892 1252.28 589.009C1252.56 589.126 1252.74 589.389 1252.82 589.797C1252.9 590.198 1252.82 590.808 1252.59 591.626L1250.29 599.647L1248.45 599.906L1250.66 592.172C1250.84 591.544 1250.93 591.1 1250.92 590.839C1250.93 590.57 1250.74 590.462 1250.37 590.514C1250.06 590.558 1249.73 590.693 1249.37 590.92C1249.02 591.146 1248.63 591.495 1248.21 591.966L1245.83 600.274L1244.06 600.523L1246.28 592.788C1246.46 592.16 1246.55 591.716 1246.54 591.455C1246.54 591.186 1246.36 591.078 1245.99 591.131C1245.67 591.175 1245.33 591.311 1244.98 591.537C1244.63 591.763 1244.25 592.111 1243.83 592.582L1241.45 600.89L1239.6 601.149L1242.69 590.366L1244.25 590.147L1244.03 591.336C1244.47 590.87 1244.91 590.474 1245.36 590.149C1245.82 589.816 1246.32 589.611 1246.86 589.535C1247.28 589.476 1247.64 589.52 1247.94 589.668C1248.25 589.814 1248.41 590.145 1248.43 590.66C1248.85 590.201 1249.29 589.815 1249.75 589.502C1250.21 589.188 1250.72 588.993 1251.27 588.915ZM1262.17 583.465L1258.64 595.803C1258.49 596.322 1258.55 596.667 1258.82 596.839C1259.08 597.004 1259.48 597.05 1260 596.977C1260.33 596.93 1260.65 596.852 1260.97 596.743C1261.28 596.633 1261.6 596.503 1261.93 596.352L1262.05 597.68C1261.7 597.873 1261.28 598.061 1260.78 598.242C1260.28 598.43 1259.74 598.565 1259.16 598.647C1258.12 598.793 1257.37 598.626 1256.91 598.147C1256.46 597.668 1256.37 596.934 1256.65 595.945L1259.72 585.243L1256.34 585.719L1256.77 584.225L1262.17 583.465ZM1270.15 585.132L1276.88 588.86L1276.35 590.712L1266.91 596.722L1266.28 595.446L1274.88 590.045L1268.78 586.73L1270.15 585.132ZM1150.44 815.059L1150.98 816.387L1142.39 821.768L1150.76 826.346L1149.3 827.925L1140.39 822.923L1140.92 821.081L1150.44 815.059ZM1148.83 830.004L1147.41 829.526L1162.34 809.194L1163.73 809.716L1148.83 830.004ZM1170.74 809.232L1169.04 815.166C1169.64 814.551 1170.29 814.064 1170.98 813.704C1171.69 813.336 1172.37 813.107 1173.01 813.016C1174.08 812.866 1174.79 813.039 1175.13 813.534C1175.48 814.022 1175.5 814.767 1175.22 815.77L1172.97 823.617L1170.94 823.902L1173.14 816.228C1173.33 815.58 1173.32 815.133 1173.11 814.887C1172.92 814.634 1172.51 814.55 1171.89 814.637C1171.5 814.692 1171.1 814.831 1170.69 815.051C1170.29 815.271 1169.91 815.534 1169.54 815.841C1169.18 816.141 1168.86 816.444 1168.58 816.751L1166.35 824.547L1164.32 824.832L1168.65 809.731L1170.74 809.232ZM1186.14 821.235C1185.68 821.536 1185.15 821.797 1184.55 822.018C1183.96 822.246 1183.38 822.399 1182.82 822.477C1181.59 822.651 1180.73 822.471 1180.25 821.936C1179.77 821.4 1179.68 820.631 1179.97 819.629L1181.74 813.449L1179.22 813.803L1179.64 812.33L1182.16 811.976L1182.86 809.541L1184.95 809.021L1184.19 811.691L1187.98 811.158L1187.33 812.664L1183.76 813.165L1182 819.324C1181.83 819.917 1181.85 820.342 1182.08 820.599C1182.31 820.854 1182.79 820.931 1183.52 820.828C1183.93 820.77 1184.33 820.669 1184.7 820.525C1185.07 820.381 1185.43 820.213 1185.76 820.022L1186.14 821.235ZM1200.24 809.19C1200.63 809.135 1200.96 809.167 1201.25 809.284C1201.53 809.401 1201.71 809.664 1201.79 810.072C1201.87 810.473 1201.79 811.083 1201.56 811.901L1199.26 819.922L1197.41 820.182L1199.63 812.447C1199.81 811.819 1199.9 811.375 1199.89 811.114C1199.89 810.845 1199.71 810.737 1199.34 810.79C1199.03 810.833 1198.7 810.968 1198.34 811.195C1197.99 811.421 1197.6 811.77 1197.18 812.241L1194.8 820.549L1193.03 820.798L1195.25 813.063C1195.43 812.436 1195.51 811.991 1195.51 811.73C1195.51 811.462 1195.32 811.353 1194.95 811.406C1194.64 811.45 1194.3 811.586 1193.95 811.812C1193.6 812.038 1193.21 812.386 1192.8 812.858L1190.41 821.165L1188.57 821.424L1191.66 810.641L1193.22 810.422L1193 811.611C1193.43 811.145 1193.87 810.749 1194.32 810.424C1194.78 810.091 1195.28 809.886 1195.82 809.81C1196.25 809.751 1196.61 809.795 1196.91 809.943C1197.22 810.089 1197.38 810.42 1197.39 810.935C1197.82 810.476 1198.26 810.09 1198.72 809.777C1199.18 809.463 1199.69 809.268 1200.24 809.19ZM1211.14 803.74L1207.6 816.079C1207.46 816.597 1207.51 816.942 1207.78 817.114C1208.05 817.279 1208.45 817.325 1208.97 817.252C1209.3 817.205 1209.62 817.127 1209.93 817.018C1210.25 816.908 1210.57 816.778 1210.9 816.627L1211.02 817.955C1210.67 818.148 1210.24 818.336 1209.75 818.517C1209.25 818.705 1208.71 818.84 1208.12 818.922C1207.08 819.068 1206.34 818.901 1205.88 818.422C1205.42 817.943 1205.34 817.209 1205.62 816.22L1208.69 805.518L1205.31 805.994L1205.73 804.5L1211.14 803.74ZM1219.12 805.407L1225.85 809.135L1225.32 810.987L1215.88 816.997L1215.24 815.722L1223.84 810.32L1217.74 807.005L1219.12 805.407Z" fill="#FF8C67"/>
<path d="M1205.03 624.728L1205.57 626.056L1196.98 631.437L1203.07 634.763L1201.62 636.342L1194.98 632.592L1195.5 630.75L1205.03 624.728ZM1212.68 620.678L1210.97 626.612C1211.58 625.997 1212.22 625.51 1212.92 625.151C1213.63 624.783 1214.3 624.554 1214.95 624.463C1216.02 624.313 1216.72 624.485 1217.07 624.98C1217.41 625.469 1217.44 626.214 1217.15 627.217L1214.9 635.064L1212.88 635.348L1215.08 627.675C1215.27 627.027 1215.26 626.58 1215.05 626.334C1214.85 626.08 1214.45 625.997 1213.83 626.084C1213.43 626.139 1213.03 626.277 1212.63 626.498C1212.23 626.718 1211.84 626.981 1211.48 627.288C1211.12 627.587 1210.8 627.891 1210.52 628.198L1208.28 635.994L1206.26 636.278L1210.59 621.177L1212.68 620.678ZM1221.89 629.546C1221.7 630.331 1221.68 630.956 1221.83 631.42C1221.97 631.877 1222.24 632.193 1222.64 632.366C1223.04 632.533 1223.51 632.577 1224.08 632.498C1224.63 632.42 1225.17 632.267 1225.68 632.038C1226.19 631.809 1226.73 631.504 1227.29 631.123L1227.86 632.232C1227.22 632.708 1226.53 633.113 1225.78 633.447C1225.03 633.775 1224.29 633.99 1223.56 634.093C1222.45 634.249 1221.57 634.146 1220.93 633.785C1220.29 633.416 1219.89 632.838 1219.72 632.049C1219.57 631.26 1219.65 630.306 1219.97 629.187C1220.28 628.103 1220.76 627.106 1221.4 626.197C1222.05 625.287 1222.82 624.535 1223.7 623.94C1224.58 623.345 1225.53 622.976 1226.54 622.833C1227.5 622.699 1228.26 622.798 1228.83 623.131C1229.4 623.463 1229.76 624.002 1229.9 624.748C1230.05 625.486 1229.96 626.408 1229.64 627.513C1229.59 627.697 1229.54 627.875 1229.48 628.047C1229.42 628.218 1229.37 628.37 1229.32 628.501L1221.89 629.546ZM1226.13 624.365C1225.34 624.476 1224.6 624.841 1223.92 625.46C1223.24 626.079 1222.7 626.963 1222.3 628.113L1227.82 627.337C1228.11 626.249 1228.11 625.455 1227.8 624.955C1227.5 624.447 1226.94 624.25 1226.13 624.365ZM1240.44 629.099C1240.32 629.529 1240.3 629.832 1240.38 630.01C1240.47 630.182 1240.65 630.294 1240.92 630.347L1240.06 631.764C1239.57 631.774 1239.17 631.689 1238.87 631.509C1238.56 631.33 1238.39 631.014 1238.34 630.562C1237.8 631.116 1237.18 631.566 1236.5 631.911C1235.81 632.249 1235.11 632.469 1234.4 632.57C1233.28 632.727 1232.49 632.544 1232.01 632.021C1231.54 631.498 1231.45 630.735 1231.74 629.732C1232.06 628.607 1232.76 627.681 1233.83 626.954C1234.91 626.227 1236.3 625.744 1237.99 625.506L1239.6 625.279L1239.84 624.461C1240.05 623.717 1239.97 623.221 1239.61 622.971C1239.25 622.721 1238.66 622.652 1237.85 622.766C1237.49 622.817 1237.04 622.923 1236.51 623.082C1235.98 623.242 1235.4 623.457 1234.78 623.728L1234.67 622.369C1235.43 622.02 1236.14 621.746 1236.8 621.549C1237.46 621.351 1238.07 621.214 1238.62 621.137C1240.05 620.935 1241.03 621.102 1241.56 621.637C1242.09 622.164 1242.19 622.977 1241.88 624.075L1240.44 629.099ZM1235.39 631.016C1235.91 630.943 1236.44 630.744 1237 630.417C1237.55 630.091 1238.05 629.674 1238.49 629.167L1239.24 626.558L1237.76 626.765C1236.59 626.93 1235.7 627.242 1235.09 627.7C1234.49 628.151 1234.1 628.71 1233.91 629.379C1233.73 630.006 1233.76 630.46 1234 630.74C1234.24 631.02 1234.71 631.112 1235.39 631.016ZM1255.18 614.665L1257.14 614.616L1252.8 629.738L1251.02 629.988L1251.25 628.63C1250.7 629.231 1250.12 629.706 1249.5 630.054C1248.89 630.402 1248.27 630.62 1247.64 630.709C1246.68 630.843 1245.96 630.719 1245.47 630.336C1244.99 629.946 1244.72 629.349 1244.66 628.545C1244.6 627.742 1244.73 626.781 1245.05 625.663C1245.36 624.571 1245.81 623.579 1246.4 622.684C1246.99 621.782 1247.68 621.041 1248.47 620.459C1249.27 619.876 1250.12 619.52 1251.04 619.39C1251.66 619.304 1252.17 619.333 1252.59 619.478C1253.01 619.615 1253.34 619.859 1253.59 620.211L1255.18 614.665ZM1251.13 620.861C1250.26 620.982 1249.5 621.414 1248.82 622.157C1248.15 622.899 1247.62 623.966 1247.22 625.357C1246.95 626.278 1246.83 627.028 1246.86 627.608C1246.88 628.187 1247.03 628.597 1247.32 628.838C1247.61 629.079 1248.03 629.162 1248.57 629.086C1249.15 629.004 1249.7 628.769 1250.22 628.383C1250.74 627.995 1251.2 627.566 1251.62 627.096L1253.13 621.827C1252.96 621.458 1252.7 621.19 1252.36 621.022C1252.02 620.847 1251.61 620.793 1251.13 620.861ZM1261.06 616.853L1267.79 620.581L1267.26 622.433L1257.82 628.444L1257.18 627.168L1265.78 621.767L1259.68 618.451L1261.06 616.853ZM1195.92 656.451L1196.46 657.779L1187.87 663.16L1196.24 667.737L1194.78 669.316L1185.87 664.315L1186.4 662.473L1195.92 656.451ZM1194.31 671.396L1192.89 670.918L1207.82 650.586L1209.21 651.108L1194.31 671.396ZM1216.22 650.623L1214.52 656.557C1215.12 655.943 1215.77 655.456 1216.46 655.096C1217.17 654.728 1217.85 654.499 1218.49 654.408C1219.56 654.258 1220.27 654.431 1220.61 654.926C1220.96 655.414 1220.98 656.159 1220.7 657.162L1218.45 665.009L1216.42 665.293L1218.62 657.62C1218.81 656.972 1218.8 656.525 1218.59 656.279C1218.4 656.025 1217.99 655.942 1217.37 656.029C1216.98 656.084 1216.58 656.222 1216.17 656.443C1215.77 656.663 1215.39 656.926 1215.02 657.233C1214.66 657.532 1214.34 657.836 1214.06 658.143L1211.83 665.939L1209.8 666.224L1214.13 651.123L1216.22 650.623ZM1225.43 659.491C1225.25 660.276 1225.23 660.901 1225.37 661.365C1225.52 661.823 1225.79 662.138 1226.18 662.312C1226.58 662.478 1227.06 662.522 1227.62 662.443C1228.18 662.365 1228.71 662.212 1229.22 661.983C1229.73 661.754 1230.27 661.449 1230.84 661.068L1231.4 662.177C1230.76 662.653 1230.07 663.058 1229.32 663.392C1228.57 663.72 1227.83 663.935 1227.1 664.038C1225.99 664.194 1225.11 664.092 1224.47 663.731C1223.83 663.362 1223.43 662.783 1223.27 661.995C1223.11 661.205 1223.19 660.251 1223.51 659.132C1223.82 658.048 1224.3 657.051 1224.95 656.142C1225.6 655.233 1226.36 654.48 1227.24 653.885C1228.12 653.291 1229.07 652.922 1230.09 652.779C1231.04 652.644 1231.8 652.744 1232.37 653.076C1232.94 653.408 1233.3 653.947 1233.44 654.693C1233.59 655.432 1233.5 656.354 1233.19 657.459C1233.13 657.643 1233.08 657.821 1233.02 657.992C1232.97 658.164 1232.91 658.315 1232.86 658.447L1225.43 659.491ZM1229.67 654.31C1228.88 654.421 1228.15 654.786 1227.46 655.406C1226.79 656.024 1226.25 656.909 1225.84 658.059L1231.37 657.282C1231.66 656.194 1231.65 655.4 1231.34 654.9C1231.04 654.392 1230.48 654.196 1229.67 654.31ZM1243.98 659.044C1243.86 659.474 1243.84 659.778 1243.92 659.956C1244.01 660.127 1244.19 660.239 1244.46 660.292L1243.6 661.709C1243.11 661.719 1242.72 661.634 1242.41 661.454C1242.11 661.275 1241.93 660.959 1241.88 660.507C1241.34 661.062 1240.73 661.511 1240.04 661.856C1239.36 662.195 1238.66 662.414 1237.94 662.515C1236.82 662.672 1236.03 662.489 1235.56 661.966C1235.09 661.443 1235 660.68 1235.28 659.677C1235.61 658.552 1236.3 657.626 1237.38 656.899C1238.45 656.172 1239.84 655.689 1241.53 655.451L1243.15 655.224L1243.38 654.406C1243.59 653.662 1243.52 653.166 1243.15 652.916C1242.79 652.666 1242.21 652.597 1241.4 652.711C1241.03 652.762 1240.58 652.868 1240.05 653.028C1239.52 653.187 1238.94 653.403 1238.32 653.674L1238.21 652.314C1238.98 651.965 1239.68 651.692 1240.34 651.495C1241 651.297 1241.61 651.159 1242.16 651.082C1243.59 650.881 1244.57 651.047 1245.1 651.582C1245.63 652.11 1245.74 652.923 1245.42 654.021L1243.98 659.044ZM1238.93 660.962C1239.45 660.889 1239.99 660.689 1240.54 660.363C1241.09 660.036 1241.59 659.619 1242.03 659.112L1242.78 656.503L1241.3 656.711C1240.13 656.876 1239.24 657.187 1238.64 657.645C1238.04 658.096 1237.64 658.656 1237.45 659.324C1237.27 659.952 1237.3 660.405 1237.54 660.685C1237.79 660.965 1238.25 661.057 1238.93 660.962ZM1258.72 644.611L1260.68 644.562L1256.34 659.683L1254.56 659.933L1254.79 658.576C1254.24 659.177 1253.66 659.651 1253.05 659.999C1252.43 660.347 1251.81 660.565 1251.18 660.654C1250.22 660.788 1249.5 660.664 1249.01 660.281C1248.53 659.891 1248.26 659.294 1248.2 658.491C1248.14 657.687 1248.27 656.726 1248.59 655.608C1248.9 654.517 1249.35 653.524 1249.94 652.63C1250.54 651.728 1251.23 650.986 1252.02 650.404C1252.81 649.821 1253.67 649.465 1254.59 649.335C1255.2 649.25 1255.71 649.279 1256.13 649.423C1256.55 649.56 1256.88 649.805 1257.13 650.156L1258.72 644.611ZM1254.67 650.806C1253.81 650.928 1253.04 651.36 1252.37 652.102C1251.7 652.844 1251.16 653.911 1250.76 655.303C1250.5 656.224 1250.38 656.974 1250.4 657.553C1250.42 658.132 1250.58 658.543 1250.87 658.784C1251.15 659.024 1251.57 659.107 1252.11 659.031C1252.69 658.949 1253.24 658.715 1253.76 658.328C1254.28 657.94 1254.75 657.511 1255.16 657.041L1256.67 651.772C1256.5 651.404 1256.24 651.135 1255.9 650.967C1255.57 650.792 1255.16 650.738 1254.67 650.806ZM1264.6 646.799L1271.33 650.527L1270.8 652.378L1261.36 658.389L1260.72 657.113L1269.32 651.712L1263.22 648.397L1264.6 646.799Z" fill="#3BDF67"/>
<path d="M1186.84 688.171L1187.38 689.499L1178.78 694.88L1184.88 698.206L1183.43 699.785L1176.78 696.035L1177.31 694.193L1186.84 688.171ZM1192.8 690.004C1193.34 689.444 1193.91 688.987 1194.52 688.634C1195.13 688.272 1195.75 688.047 1196.38 687.96C1197.36 687.821 1198.09 687.945 1198.57 688.329C1199.05 688.707 1199.3 689.299 1199.34 690.105C1199.38 690.905 1199.24 691.874 1198.91 693.013C1198.6 694.105 1198.15 695.1 1197.57 696C1196.99 696.9 1196.3 697.642 1195.51 698.224C1194.72 698.801 1193.84 699.156 1192.89 699.29C1191.61 699.469 1190.75 699.158 1190.29 698.359L1189.85 699.471L1188.07 699.722L1192.4 684.6L1194.5 684.081L1192.8 690.004ZM1192.83 697.815C1193.7 697.692 1194.47 697.264 1195.13 696.529C1195.81 695.787 1196.34 694.717 1196.74 693.318C1197.01 692.384 1197.14 691.63 1197.12 691.056C1197.1 690.476 1196.95 690.065 1196.66 689.824C1196.38 689.582 1195.97 689.499 1195.44 689.574C1194.86 689.655 1194.3 689.897 1193.76 690.3C1193.23 690.697 1192.75 691.13 1192.34 691.6L1190.84 696.818C1191.01 697.188 1191.26 697.463 1191.6 697.645C1191.94 697.826 1192.35 697.883 1192.83 697.815ZM1208.21 686.297C1209.27 686.148 1210.09 686.255 1210.67 686.618C1211.26 686.98 1211.62 687.559 1211.74 688.353C1211.87 689.14 1211.78 690.106 1211.45 691.252C1211.13 692.363 1210.66 693.372 1210.03 694.278C1209.42 695.176 1208.68 695.918 1207.82 696.504C1206.96 697.083 1206 697.447 1204.95 697.595C1203.89 697.743 1203.07 697.637 1202.47 697.276C1201.88 696.914 1201.52 696.336 1201.39 695.542C1201.26 694.749 1201.36 693.783 1201.68 692.644C1202 691.525 1202.47 690.517 1203.09 689.619C1203.71 688.713 1204.46 687.97 1205.32 687.39C1206.19 686.81 1207.15 686.445 1208.21 686.297ZM1207.76 687.863C1206.84 687.991 1206.06 688.422 1205.4 689.156C1204.75 689.882 1204.22 690.945 1203.82 692.343C1203.42 693.728 1203.36 694.722 1203.62 695.326C1203.89 695.924 1204.48 696.158 1205.39 696.03C1206.31 695.902 1207.09 695.474 1207.73 694.749C1208.38 694.016 1208.91 692.951 1209.31 691.552C1209.71 690.161 1209.77 689.167 1209.51 688.569C1209.25 687.971 1208.66 687.735 1207.76 687.863ZM1224.35 679.885L1226.3 679.836L1221.97 694.957L1220.19 695.208L1220.42 693.85C1219.87 694.451 1219.28 694.925 1218.67 695.273C1218.06 695.621 1217.44 695.84 1216.8 695.928C1215.85 696.063 1215.13 695.939 1214.64 695.556C1214.15 695.165 1213.88 694.568 1213.82 693.765C1213.76 692.962 1213.9 692.001 1214.22 690.882C1214.53 689.791 1214.98 688.798 1215.57 687.904C1216.16 687.002 1216.85 686.26 1217.64 685.678C1218.43 685.095 1219.29 684.739 1220.21 684.61C1220.82 684.524 1221.34 684.553 1221.76 684.697C1222.17 684.835 1222.51 685.079 1222.76 685.43L1224.35 679.885ZM1220.3 686.081C1219.43 686.202 1218.66 686.634 1217.99 687.376C1217.32 688.119 1216.79 689.186 1216.39 690.577C1216.12 691.498 1216 692.248 1216.03 692.827C1216.05 693.407 1216.2 693.817 1216.49 694.058C1216.78 694.299 1217.19 694.381 1217.74 694.305C1218.32 694.223 1218.87 693.989 1219.38 693.602C1219.91 693.215 1220.37 692.786 1220.78 692.316L1222.3 687.047C1222.12 686.678 1221.87 686.41 1221.52 686.242C1221.19 686.066 1220.78 686.012 1220.3 686.081ZM1238.53 682.28L1231.54 693.67C1231.06 694.472 1230.52 695.209 1229.92 695.882C1229.32 696.555 1228.63 697.133 1227.85 697.616C1227.08 698.104 1226.18 698.467 1225.15 698.703L1225.3 697.219C1226.09 696.996 1226.74 696.735 1227.25 696.434C1227.77 696.132 1228.21 695.772 1228.57 695.355C1228.94 694.936 1229.31 694.443 1229.67 693.876L1228.98 693.972L1228.25 683.726L1230.41 683.422L1230.75 692.348L1236.45 682.574L1238.53 682.28ZM1242.87 680.297L1249.6 684.025L1249.07 685.876L1239.62 691.887L1238.99 690.611L1247.59 685.21L1241.49 681.895L1242.87 680.297ZM1231.84 742.733L1232.38 744.061L1223.79 749.442L1229.88 752.768L1228.43 754.347L1221.79 750.597L1222.32 748.755L1231.84 742.733ZM1241.4 742.518C1242.39 742.38 1243.11 742.505 1243.56 742.892C1244.02 743.273 1244.26 743.868 1244.27 744.677C1244.29 745.48 1244.14 746.45 1243.81 747.59C1243.5 748.681 1243.06 749.675 1242.5 750.572C1241.94 751.469 1241.28 752.208 1240.5 752.787C1239.73 753.361 1238.87 753.714 1237.91 753.849C1236.71 754.018 1235.86 753.744 1235.38 753.027L1233.91 758.132L1231.82 758.652L1236.17 743.5L1237.9 743.255L1237.64 744.687C1238.21 744.077 1238.82 743.585 1239.46 743.213C1240.11 742.841 1240.76 742.609 1241.4 742.518ZM1240.44 744.136C1239.87 744.217 1239.31 744.459 1238.77 744.862C1238.23 745.258 1237.76 745.692 1237.34 746.162L1235.85 751.38C1236.01 751.743 1236.27 752.011 1236.61 752.186C1236.95 752.354 1237.37 752.403 1237.87 752.332C1238.74 752.21 1239.49 751.79 1240.12 751.073C1240.76 750.349 1241.27 749.288 1241.67 747.89C1241.94 746.956 1242.07 746.201 1242.07 745.625C1242.07 745.043 1241.93 744.63 1241.66 744.387C1241.39 744.143 1240.99 744.06 1240.44 744.136ZM1249.95 740.187L1256.68 743.915L1256.15 745.767L1246.71 751.777L1246.08 750.502L1254.67 745.101L1248.57 741.785L1249.95 740.187ZM1277.88 747.985L1279.77 741.417L1274.6 742.143L1272.72 748.711L1270.63 749.004L1274.68 734.906L1276.76 734.613L1275.08 740.475L1280.25 739.749L1281.93 733.887L1284.01 733.594L1279.97 747.692L1277.88 747.985ZM1286.62 742.221C1286.44 743.007 1286.41 743.631 1286.56 744.096C1286.7 744.553 1286.97 744.869 1287.37 745.042C1287.77 745.209 1288.25 745.253 1288.81 745.174C1289.36 745.096 1289.9 744.942 1290.41 744.713C1290.92 744.485 1291.46 744.18 1292.02 743.799L1292.59 744.908C1291.95 745.383 1291.26 745.788 1290.51 746.123C1289.76 746.451 1289.02 746.666 1288.29 746.768C1287.18 746.924 1286.3 746.822 1285.66 746.461C1285.02 746.092 1284.62 745.513 1284.46 744.725C1284.3 743.936 1284.38 742.981 1284.7 741.863C1285.01 740.778 1285.49 739.782 1286.13 738.873C1286.79 737.963 1287.55 737.211 1288.43 736.616C1289.31 736.021 1290.26 735.652 1291.28 735.509C1292.23 735.375 1292.99 735.474 1293.56 735.807C1294.13 736.139 1294.49 736.678 1294.63 737.423C1294.78 738.162 1294.69 739.084 1294.37 740.189C1294.32 740.373 1294.27 740.551 1294.21 740.723C1294.16 740.894 1294.1 741.046 1294.05 741.177L1286.62 742.221ZM1290.86 737.041C1290.07 737.151 1289.33 737.516 1288.65 738.136C1287.98 738.755 1287.43 739.639 1287.03 740.789L1292.55 740.013C1292.85 738.925 1292.84 738.13 1292.53 737.63C1292.23 737.123 1291.67 736.926 1290.86 737.041ZM1305.17 729.639L1301.63 741.977C1301.48 742.496 1301.54 742.841 1301.81 743.012C1302.08 743.178 1302.48 743.224 1303 743.15C1303.33 743.104 1303.65 743.026 1303.96 742.916C1304.28 742.807 1304.6 742.676 1304.92 742.526L1305.05 743.853C1304.7 744.047 1304.27 744.234 1303.78 744.415C1303.28 744.603 1302.74 744.738 1302.15 744.82C1301.11 744.966 1300.36 744.8 1299.91 744.321C1299.45 743.841 1299.37 743.107 1299.65 742.118L1302.72 731.417L1299.34 731.892L1299.76 730.399L1305.17 729.639ZM1317.81 727.862L1314.27 740.201C1314.12 740.719 1314.18 741.064 1314.45 741.236C1314.72 741.401 1315.11 741.447 1315.63 741.374C1315.96 741.328 1316.29 741.25 1316.6 741.14C1316.92 741.03 1317.24 740.9 1317.56 740.749L1317.69 742.077C1317.34 742.271 1316.91 742.458 1316.41 742.639C1315.92 742.827 1315.37 742.962 1314.79 743.044C1313.75 743.19 1313 743.024 1312.55 742.544C1312.09 742.065 1312.01 741.331 1312.29 740.342L1315.36 729.64L1311.97 730.116L1312.4 728.622L1317.81 727.862ZM1329.05 730.201C1330.11 730.052 1330.93 730.159 1331.51 730.522C1332.1 730.884 1332.46 731.462 1332.58 732.256C1332.72 733.043 1332.62 734.009 1332.29 735.155C1331.97 736.267 1331.5 737.276 1330.87 738.182C1330.26 739.08 1329.52 739.822 1328.66 740.408C1327.8 740.987 1326.84 741.35 1325.79 741.499C1324.73 741.647 1323.91 741.54 1323.31 741.179C1322.72 740.817 1322.36 740.239 1322.23 739.446C1322.1 738.652 1322.2 737.686 1322.52 736.547C1322.84 735.429 1323.31 734.42 1323.93 733.522C1324.55 732.616 1325.3 731.873 1326.16 731.293C1327.03 730.713 1327.99 730.349 1329.05 730.201ZM1328.6 731.766C1327.68 731.894 1326.9 732.325 1326.24 733.059C1325.59 733.786 1325.06 734.848 1324.66 736.246C1324.27 737.631 1324.2 738.625 1324.46 739.23C1324.73 739.827 1325.32 740.062 1326.24 739.933C1327.15 739.805 1327.93 739.378 1328.58 738.652C1329.22 737.919 1329.75 736.854 1330.15 735.456C1330.55 734.064 1330.61 733.07 1330.35 732.473C1330.09 731.874 1329.5 731.639 1328.6 731.766ZM1347.52 738.198L1351.57 724.1L1353.66 723.805L1350.13 736.144L1356.7 735.219L1355.97 737.012L1347.52 738.198ZM1362.46 731.563C1362.27 732.349 1362.25 732.973 1362.39 733.438C1362.54 733.895 1362.81 734.21 1363.21 734.384C1363.6 734.551 1364.08 734.595 1364.64 734.516C1365.2 734.438 1365.73 734.284 1366.24 734.055C1366.75 733.826 1367.29 733.522 1367.86 733.141L1368.42 734.25C1367.79 734.725 1367.09 735.13 1366.34 735.465C1365.6 735.792 1364.86 736.008 1364.13 736.11C1363.02 736.266 1362.14 736.164 1361.49 735.803C1360.86 735.434 1360.46 734.855 1360.29 734.067C1360.13 733.277 1360.22 732.323 1360.54 731.205C1360.85 730.12 1361.33 729.124 1361.97 728.215C1362.62 727.305 1363.39 726.553 1364.27 725.958C1365.14 725.363 1366.09 724.994 1367.11 724.851C1368.07 724.717 1368.83 724.816 1369.39 725.149C1369.97 725.481 1370.32 726.02 1370.47 726.765C1370.61 727.504 1370.53 728.426 1370.21 729.531C1370.16 729.715 1370.1 729.893 1370.05 730.064C1369.99 730.236 1369.94 730.387 1369.89 730.519L1362.46 731.563ZM1366.69 726.383C1365.91 726.493 1365.17 726.858 1364.49 727.478C1363.81 728.097 1363.27 728.981 1362.87 730.131L1368.39 729.355C1368.68 728.266 1368.67 727.472 1368.37 726.972C1368.07 726.465 1367.51 726.268 1366.69 726.383ZM1381.01 731.116C1380.88 731.546 1380.86 731.85 1380.95 732.028C1381.03 732.199 1381.21 732.311 1381.49 732.364L1380.63 733.782C1380.14 733.791 1379.74 733.706 1379.44 733.527C1379.13 733.347 1378.95 733.032 1378.91 732.58C1378.36 733.134 1377.75 733.584 1377.06 733.929C1376.38 734.267 1375.68 734.487 1374.96 734.587C1373.85 734.744 1373.05 734.561 1372.58 734.038C1372.11 733.515 1372.02 732.752 1372.31 731.75C1372.63 730.624 1373.33 729.698 1374.4 728.972C1375.48 728.244 1376.86 727.761 1378.56 727.523L1380.17 727.297L1380.4 726.478C1380.62 725.735 1380.54 725.238 1380.17 724.989C1379.81 724.738 1379.23 724.67 1378.42 724.783C1378.06 724.835 1377.61 724.94 1377.08 725.1C1376.55 725.26 1375.97 725.475 1375.34 725.746L1375.24 724.386C1376 724.037 1376.71 723.764 1377.37 723.567C1378.03 723.369 1378.63 723.232 1379.18 723.155C1380.62 722.953 1381.6 723.12 1382.12 723.654C1382.65 724.182 1382.76 724.995 1382.45 726.093L1381.01 731.116ZM1375.96 733.034C1376.48 732.961 1377.01 732.761 1377.56 732.435C1378.12 732.109 1378.61 731.692 1379.05 731.185L1379.8 728.576L1378.33 728.783C1377.15 728.948 1376.27 729.259 1375.66 729.717C1375.06 730.168 1374.66 730.728 1374.47 731.396C1374.29 732.024 1374.32 732.478 1374.57 732.758C1374.81 733.038 1375.27 733.13 1375.96 733.034ZM1384.85 732.952L1385.27 731.499L1386.95 731.262L1389.21 723.384L1387.53 723.621L1387.94 722.169L1391.18 721.714L1390.82 724.189C1391.5 723.236 1392.21 722.478 1392.96 721.915C1393.72 721.344 1394.59 720.989 1395.57 720.851C1395.9 720.805 1396.18 720.789 1396.41 720.802C1396.65 720.815 1396.89 720.84 1397.12 720.878L1396.03 722.682C1395.82 722.646 1395.62 722.628 1395.44 722.627C1395.26 722.627 1395.04 722.644 1394.8 722.678C1393.96 722.796 1393.16 723.19 1392.39 723.86C1391.63 724.531 1390.9 725.461 1390.22 726.65L1388.98 730.978L1391.23 730.661L1390.82 732.114L1384.85 732.952ZM1394.16 724.928L1394.87 722.452L1395.48 721.11L1397.12 720.878L1395.72 724.708L1394.16 724.928ZM1397.39 731.191L1400.48 720.407L1402.22 720.163L1401.95 721.595C1402.56 720.978 1403.24 720.477 1403.98 720.092C1404.72 719.706 1405.42 719.467 1406.07 719.375C1407.14 719.225 1407.85 719.398 1408.19 719.893C1408.54 720.381 1408.57 721.126 1408.28 722.129L1406.03 729.976L1404 730.26L1405.91 723.62C1406.1 722.938 1406.22 722.392 1406.26 721.981C1406.3 721.562 1406.23 721.275 1406.03 721.119C1405.83 720.964 1405.48 720.922 1404.96 720.994C1404.56 721.051 1404.16 721.189 1403.75 721.41C1403.34 721.631 1402.96 721.891 1402.6 722.191C1402.24 722.49 1401.92 722.793 1401.65 723.1L1399.41 730.906L1397.39 731.191ZM1413.01 724.458C1412.83 725.243 1412.81 725.868 1412.95 726.332C1413.1 726.79 1413.37 727.105 1413.76 727.279C1414.16 727.445 1414.64 727.489 1415.2 727.41C1415.76 727.332 1416.29 727.179 1416.8 726.95C1417.31 726.721 1417.85 726.416 1418.42 726.035L1418.98 727.144C1418.35 727.62 1417.65 728.025 1416.9 728.359C1416.15 728.687 1415.41 728.902 1414.68 729.005C1413.57 729.161 1412.7 729.058 1412.05 728.697C1411.42 728.329 1411.01 727.75 1410.85 726.961C1410.69 726.172 1410.77 725.218 1411.09 724.099C1411.41 723.015 1411.88 722.018 1412.53 721.109C1413.18 720.199 1413.95 719.447 1414.82 718.852C1415.7 718.258 1416.65 717.889 1417.67 717.745C1418.63 717.611 1419.39 717.71 1419.95 718.043C1420.52 718.375 1420.88 718.914 1421.03 719.66C1421.17 720.399 1421.09 721.321 1420.77 722.426C1420.72 722.61 1420.66 722.788 1420.61 722.959C1420.55 723.131 1420.5 723.282 1420.44 723.414L1413.01 724.458ZM1417.25 719.277C1416.46 719.388 1415.73 719.753 1415.05 720.373C1414.37 720.991 1413.83 721.876 1413.42 723.026L1418.95 722.249C1419.24 721.161 1419.23 720.367 1418.92 719.867C1418.62 719.359 1418.07 719.163 1417.25 719.277ZM1422.77 727.623L1423.19 726.17L1424.87 725.933L1427.13 718.055L1425.45 718.292L1425.86 716.84L1429.1 716.385L1428.74 718.86C1429.42 717.907 1430.13 717.149 1430.88 716.586C1431.64 716.015 1432.51 715.66 1433.49 715.522C1433.82 715.476 1434.09 715.46 1434.33 715.473C1434.56 715.486 1434.8 715.511 1435.04 715.549L1433.95 717.353C1433.74 717.317 1433.54 717.299 1433.36 717.298C1433.18 717.298 1432.96 717.315 1432.72 717.349C1431.88 717.467 1431.08 717.861 1430.31 718.531C1429.55 719.202 1428.82 720.132 1428.14 721.321L1426.9 725.649L1429.15 725.332L1428.74 726.785L1422.77 727.623ZM1432.08 719.599L1432.79 717.123L1433.4 715.781L1435.04 715.549L1433.64 719.379L1432.08 719.599ZM1439.57 724.005C1440.38 723.892 1441.05 723.659 1441.6 723.308C1442.15 722.955 1442.5 722.533 1442.64 722.042C1442.73 721.728 1442.74 721.468 1442.68 721.26C1442.63 721.052 1442.43 720.883 1442.1 720.753C1441.77 720.622 1441.25 720.516 1440.53 720.433C1439.83 720.355 1439.24 720.232 1438.75 720.066C1438.25 719.899 1437.91 719.64 1437.71 719.288C1437.53 718.935 1437.52 718.444 1437.7 717.817C1437.88 717.203 1438.21 716.646 1438.69 716.147C1439.17 715.646 1439.78 715.228 1440.49 714.891C1441.22 714.554 1442.01 714.325 1442.88 714.203C1443.79 714.075 1444.55 714.083 1445.15 714.226C1445.77 714.363 1446.26 714.568 1446.64 714.843L1445.41 716.243C1445.06 716.024 1444.65 715.862 1444.19 715.756C1443.73 715.65 1443.16 715.645 1442.47 715.742C1441.65 715.858 1441.03 716.063 1440.61 716.358C1440.2 716.645 1439.93 716.986 1439.82 717.382C1439.74 717.675 1439.75 717.909 1439.86 718.083C1439.98 718.249 1440.23 718.385 1440.6 718.489C1440.98 718.593 1441.51 718.692 1442.2 718.785C1442.87 718.875 1443.44 719.011 1443.9 719.194C1444.37 719.377 1444.69 719.659 1444.86 720.041C1445.05 720.414 1445.04 720.942 1444.84 721.624C1444.62 722.395 1444.21 723.055 1443.62 723.603C1443.03 724.145 1442.33 724.579 1441.54 724.907C1440.75 725.234 1439.94 725.455 1439.12 725.571C1438.11 725.713 1437.28 725.692 1436.63 725.508C1435.99 725.324 1435.48 725.058 1435.11 724.711L1436.58 723.306C1436.92 723.592 1437.34 723.805 1437.84 723.944C1438.34 724.077 1438.92 724.097 1439.57 724.005ZM1471.98 708.983L1472.52 710.311L1463.93 715.692L1472.3 720.27L1470.84 721.849L1461.93 716.847L1462.46 715.005L1471.98 708.983ZM1470.37 723.928L1468.95 723.451L1483.88 703.119L1485.27 703.64L1470.37 723.928ZM1496.22 707.982C1496.42 707.286 1496.44 706.753 1496.28 706.384C1496.12 706.007 1495.81 705.765 1495.37 705.657C1494.93 705.542 1494.39 705.529 1493.75 705.62L1491.8 705.894L1490.13 711.685L1492.05 711.415C1492.7 711.325 1493.3 711.155 1493.85 710.908C1494.4 710.661 1494.87 710.302 1495.28 709.833C1495.69 709.356 1496.01 708.739 1496.22 707.982ZM1498.44 707.65C1498.13 708.748 1497.63 709.669 1496.95 710.413C1496.28 711.148 1495.48 711.729 1494.54 712.156C1493.61 712.581 1492.59 712.871 1491.49 713.026L1489.68 713.281L1488.2 718.427L1486.1 718.722L1490.15 704.624L1493.99 704.083C1495.76 703.834 1497.05 703.997 1497.86 704.571C1498.67 705.137 1498.87 706.163 1498.44 707.65ZM1159.54 783.337L1160.08 784.666L1151.49 790.046L1159.85 794.624L1158.4 796.203L1149.49 791.201L1150.02 789.36L1159.54 783.337ZM1157.93 798.282L1156.5 797.805L1171.44 777.473L1172.83 777.994L1157.93 798.282ZM1178.15 783.393C1178.69 782.833 1179.26 782.376 1179.87 782.022C1180.48 781.661 1181.1 781.436 1181.73 781.348C1182.71 781.21 1183.44 781.333 1183.92 781.718C1184.4 782.096 1184.66 782.688 1184.69 783.494C1184.73 784.293 1184.59 785.263 1184.26 786.402C1183.95 787.493 1183.5 788.489 1182.92 789.389C1182.34 790.289 1181.65 791.03 1180.86 791.613C1180.07 792.189 1179.19 792.544 1178.24 792.679C1176.97 792.857 1176.1 792.547 1175.64 791.747L1175.2 792.86L1173.42 793.11L1177.76 777.989L1179.85 777.469L1178.15 783.393ZM1178.18 791.203C1179.06 791.081 1179.82 790.652 1180.49 789.918C1181.16 789.175 1181.69 788.105 1182.09 786.707C1182.36 785.772 1182.49 785.018 1182.47 784.445C1182.45 783.865 1182.3 783.454 1182.01 783.213C1181.73 782.971 1181.32 782.888 1180.79 782.963C1180.21 783.044 1179.66 783.286 1179.12 783.689C1178.58 784.085 1178.1 784.519 1177.69 784.989L1176.19 790.207C1176.36 790.576 1176.61 790.852 1176.95 791.033C1177.29 791.215 1177.7 791.272 1178.18 791.203ZM1193.56 779.686C1194.62 779.537 1195.44 779.644 1196.02 780.007C1196.61 780.369 1196.97 780.947 1197.09 781.742C1197.23 782.528 1197.13 783.494 1196.8 784.64C1196.48 785.752 1196.01 786.761 1195.38 787.667C1194.77 788.565 1194.03 789.307 1193.17 789.893C1192.31 790.472 1191.35 790.836 1190.3 790.984C1189.24 791.132 1188.42 791.025 1187.82 790.664C1187.23 790.302 1186.87 789.724 1186.74 788.931C1186.61 788.138 1186.71 787.171 1187.03 786.032C1187.35 784.914 1187.82 783.905 1188.44 783.007C1189.06 782.101 1189.81 781.358 1190.67 780.778C1191.54 780.198 1192.5 779.834 1193.56 779.686ZM1193.11 781.251C1192.19 781.38 1191.41 781.811 1190.75 782.544C1190.1 783.271 1189.57 784.333 1189.17 785.732C1188.78 787.116 1188.71 788.111 1188.97 788.715C1189.24 789.312 1189.83 789.547 1190.75 789.418C1191.66 789.29 1192.44 788.863 1193.09 788.137C1193.73 787.405 1194.26 786.339 1194.66 784.941C1195.06 783.55 1195.12 782.555 1194.86 781.958C1194.6 781.359 1194.01 781.124 1193.11 781.251ZM1209.7 773.274L1211.66 773.224L1207.32 788.346L1205.54 788.596L1205.77 787.239C1205.22 787.84 1204.64 788.314 1204.02 788.662C1203.41 789.01 1202.79 789.228 1202.16 789.317C1201.2 789.451 1200.48 789.327 1199.99 788.944C1199.51 788.554 1199.24 787.957 1199.18 787.154C1199.12 786.35 1199.25 785.389 1199.57 784.271C1199.88 783.179 1200.33 782.187 1200.92 781.293C1201.51 780.391 1202.2 779.649 1202.99 779.067C1203.79 778.484 1204.64 778.128 1205.56 777.998C1206.17 777.912 1206.69 777.942 1207.11 778.086C1207.53 778.223 1207.86 778.468 1208.11 778.819L1209.7 773.274ZM1205.65 779.469C1204.78 779.591 1204.02 780.023 1203.34 780.765C1202.67 781.507 1202.14 782.574 1201.74 783.966C1201.47 784.886 1201.35 785.637 1201.38 786.216C1201.4 786.795 1201.55 787.205 1201.84 787.446C1202.13 787.687 1202.55 787.77 1203.09 787.694C1203.67 787.612 1204.22 787.378 1204.73 786.991C1205.26 786.603 1205.72 786.174 1206.14 785.704L1207.65 780.435C1207.48 780.066 1207.22 779.798 1206.88 779.63C1206.54 779.455 1206.13 779.401 1205.65 779.469ZM1223.88 775.669L1216.9 787.059C1216.41 787.86 1215.87 788.598 1215.27 789.271C1214.67 789.944 1213.98 790.522 1213.21 791.004C1212.43 791.493 1211.53 791.855 1210.5 792.092L1210.65 790.608C1211.44 790.385 1212.09 790.123 1212.6 789.822C1213.12 789.52 1213.56 789.161 1213.92 788.743C1214.29 788.325 1214.66 787.832 1215.02 787.264L1214.33 787.36L1213.6 777.115L1215.76 776.811L1216.1 785.737L1221.8 775.962L1223.88 775.669ZM1228.22 773.685L1234.95 777.413L1234.42 779.265L1224.98 785.275L1224.34 784L1232.94 778.599L1226.84 775.283L1228.22 773.685Z" fill="#DD5C2C"/>
<path d="M1237.55 719.844L1232.04 720.617L1229.94 724.28L1227.84 724.575L1236.57 709.819L1239.2 709.449L1239.85 722.888L1237.64 723.199L1237.55 719.844ZM1232.99 718.922L1237.53 718.285L1237.37 711.277L1232.99 718.922ZM1242.17 722.562L1245.26 711.778L1247 711.534L1246.73 712.966C1247.35 712.349 1248.02 711.848 1248.76 711.463C1249.51 711.077 1250.2 710.838 1250.86 710.746C1251.93 710.596 1252.63 710.768 1252.98 711.263C1253.32 711.752 1253.35 712.497 1253.06 713.5L1250.81 721.347L1248.79 721.631L1250.69 714.991C1250.89 714.309 1251 713.763 1251.04 713.352C1251.09 712.933 1251.01 712.646 1250.81 712.49C1250.61 712.335 1250.26 712.293 1249.75 712.365C1249.35 712.422 1248.94 712.56 1248.53 712.781C1248.13 713.002 1247.74 713.262 1247.38 713.562C1247.02 713.861 1246.71 714.164 1246.43 714.471L1244.19 722.277L1242.17 722.562ZM1267.43 707.465L1267.52 709.121C1267.02 709.33 1266.49 709.492 1265.94 709.608C1265.41 709.723 1264.82 709.825 1264.18 709.915C1264.75 710.11 1265.13 710.409 1265.34 710.813C1265.54 711.216 1265.55 711.732 1265.37 712.359C1265.16 713.069 1264.81 713.724 1264.31 714.325C1263.81 714.925 1263.2 715.426 1262.47 715.83C1261.75 716.233 1260.94 716.497 1260.05 716.622C1259.7 716.671 1259.4 716.7 1259.16 716.707C1258.94 716.706 1258.71 716.688 1258.5 716.653C1258.32 716.777 1258.15 716.935 1257.99 717.127C1257.84 717.318 1257.74 717.513 1257.68 717.711C1257.61 717.949 1257.65 718.14 1257.8 718.283C1257.95 718.419 1258.31 718.447 1258.88 718.367L1260.85 718.09C1261.62 717.982 1262.26 718.016 1262.78 718.191C1263.31 718.366 1263.69 718.65 1263.91 719.045C1264.12 719.44 1264.15 719.921 1263.99 720.487C1263.68 721.558 1262.97 722.446 1261.87 723.151C1260.76 723.863 1259.34 724.341 1257.61 724.583C1256.39 724.755 1255.46 724.768 1254.83 724.621C1254.21 724.473 1253.82 724.178 1253.66 723.735C1253.51 723.291 1253.54 722.705 1253.75 721.975L1255.57 721.719C1255.46 722.121 1255.44 722.44 1255.53 722.677C1255.62 722.913 1255.86 723.066 1256.25 723.136C1256.64 723.205 1257.24 723.183 1258.05 723.069C1258.85 722.957 1259.51 722.801 1260.04 722.602C1260.57 722.404 1260.99 722.162 1261.29 721.877C1261.6 721.592 1261.8 721.269 1261.91 720.907C1262.04 720.43 1261.93 720.096 1261.55 719.906C1261.18 719.716 1260.66 719.669 1259.97 719.766L1258.02 720.04C1257.02 720.18 1256.34 720.079 1255.99 719.735C1255.65 719.385 1255.55 718.94 1255.71 718.401C1255.81 718.046 1256.01 717.687 1256.31 717.325C1256.61 716.961 1257 716.625 1257.48 716.316C1256.93 716.073 1256.57 715.73 1256.39 715.29C1256.23 714.848 1256.25 714.279 1256.45 713.583C1256.66 712.84 1257.04 712.158 1257.58 711.539C1258.13 710.919 1258.79 710.4 1259.57 709.984C1260.34 709.568 1261.17 709.297 1262.05 709.173C1262.97 709.043 1263.74 708.897 1264.34 708.733C1264.96 708.561 1265.5 708.374 1265.97 708.17C1266.45 707.959 1266.94 707.724 1267.43 707.465ZM1261.66 710.563C1260.84 710.679 1260.15 710.991 1259.62 711.499C1259.08 711.999 1258.71 712.597 1258.52 713.293C1258.31 713.996 1258.36 714.543 1258.64 714.935C1258.93 715.32 1259.49 715.453 1260.34 715.335C1261.08 715.23 1261.71 714.942 1262.22 714.471C1262.74 713.992 1263.11 713.368 1263.33 712.597C1263.55 711.82 1263.52 711.261 1263.24 710.92C1262.96 710.573 1262.44 710.454 1261.66 710.563ZM1276.35 715.382C1276.22 715.812 1276.2 716.116 1276.29 716.294C1276.37 716.465 1276.55 716.577 1276.83 716.63L1275.97 718.047C1275.48 718.057 1275.08 717.972 1274.78 717.792C1274.47 717.613 1274.29 717.297 1274.25 716.845C1273.71 717.4 1273.09 717.849 1272.41 718.194C1271.72 718.533 1271.02 718.752 1270.31 718.853C1269.19 719.01 1268.39 718.827 1267.92 718.304C1267.45 717.781 1267.36 717.018 1267.65 716.015C1267.97 714.89 1268.67 713.964 1269.74 713.237C1270.82 712.51 1272.21 712.027 1273.9 711.789L1275.51 711.562L1275.75 710.744C1275.96 710 1275.88 709.504 1275.52 709.254C1275.16 709.004 1274.57 708.935 1273.76 709.049C1273.4 709.1 1272.95 709.206 1272.42 709.365C1271.89 709.525 1271.31 709.741 1270.69 710.012L1270.58 708.652C1271.34 708.303 1272.05 708.03 1272.71 707.833C1273.37 707.635 1273.98 707.497 1274.52 707.42C1275.96 707.219 1276.94 707.385 1277.47 707.92C1278 708.447 1278.1 709.26 1277.79 710.359L1276.35 715.382ZM1271.3 717.3C1271.82 717.226 1272.35 717.027 1272.9 716.7C1273.46 716.374 1273.95 715.957 1274.4 715.45L1275.14 712.841L1273.67 713.049C1272.5 713.213 1271.61 713.525 1271 713.983C1270.4 714.434 1270.01 714.994 1269.81 715.662C1269.63 716.289 1269.67 716.743 1269.91 717.023C1270.15 717.303 1270.62 717.395 1271.3 717.3ZM1288.99 713.606C1288.86 714.035 1288.84 714.339 1288.93 714.517C1289.01 714.688 1289.19 714.801 1289.47 714.854L1288.61 716.271C1288.12 716.28 1287.72 716.196 1287.42 716.016C1287.11 715.836 1286.93 715.521 1286.89 715.069C1286.35 715.623 1285.73 716.073 1285.05 716.418C1284.36 716.756 1283.66 716.976 1282.94 717.076C1281.83 717.233 1281.03 717.05 1280.56 716.527C1280.09 716.004 1280 715.242 1280.29 714.239C1280.61 713.114 1281.31 712.188 1282.38 711.461C1283.46 710.733 1284.84 710.251 1286.54 710.013L1288.15 709.786L1288.39 708.967C1288.6 708.224 1288.52 707.727 1288.15 707.478C1287.8 707.227 1287.21 707.159 1286.4 707.272C1286.04 707.324 1285.59 707.429 1285.06 707.589C1284.53 707.749 1283.95 707.964 1283.33 708.235L1283.22 706.875C1283.98 706.526 1284.69 706.253 1285.35 706.056C1286.01 705.858 1286.62 705.721 1287.16 705.644C1288.6 705.442 1289.58 705.609 1290.11 706.143C1290.64 706.671 1290.74 707.484 1290.43 708.582L1288.99 713.606ZM1283.94 715.523C1284.46 715.45 1284.99 715.25 1285.54 714.924C1286.1 714.598 1286.59 714.181 1287.04 713.674L1287.78 711.065L1286.31 711.272C1285.13 711.437 1284.25 711.748 1283.64 712.206C1283.04 712.657 1282.65 713.217 1282.45 713.886C1282.27 714.513 1282.31 714.967 1282.55 715.247C1282.79 715.527 1283.25 715.619 1283.94 715.523ZM1292.83 715.441L1293.25 713.988L1294.94 713.751L1297.19 705.874L1295.51 706.111L1295.92 704.658L1299.16 704.203L1298.8 706.678C1299.48 705.726 1300.2 704.967 1300.94 704.404C1301.7 703.833 1302.57 703.478 1303.56 703.34C1303.88 703.295 1304.16 703.278 1304.39 703.292C1304.63 703.304 1304.87 703.329 1305.1 703.368L1304.01 705.171C1303.8 705.135 1303.6 705.117 1303.42 705.117C1303.24 705.116 1303.02 705.133 1302.78 705.167C1301.94 705.285 1301.14 705.679 1300.38 706.349C1299.61 707.02 1298.89 707.95 1298.2 709.139L1296.96 713.467L1299.21 713.15L1298.8 714.603L1292.83 715.441ZM1302.14 707.417L1302.85 704.941L1303.46 703.599L1305.1 703.368L1303.7 707.198L1302.14 707.417ZM1324.9 710.935L1326.78 704.366L1321.62 705.092L1319.73 711.66L1317.65 711.954L1321.69 697.855L1323.78 697.562L1322.1 703.425L1327.26 702.699L1328.94 696.836L1331.03 696.543L1326.99 710.641L1324.9 710.935ZM1339.54 706.5C1339.42 706.93 1339.4 707.234 1339.49 707.412C1339.57 707.583 1339.75 707.695 1340.03 707.748L1339.16 709.165C1338.68 709.175 1338.28 709.09 1337.97 708.911C1337.67 708.731 1337.49 708.415 1337.45 707.964C1336.9 708.518 1336.29 708.967 1335.6 709.313C1334.92 709.651 1334.22 709.87 1333.5 709.971C1332.38 710.128 1331.59 709.945 1331.12 709.422C1330.65 708.899 1330.56 708.136 1330.85 707.134C1331.17 706.008 1331.87 705.082 1332.94 704.356C1334.02 703.628 1335.4 703.145 1337.1 702.907L1338.71 702.681L1338.94 701.862C1339.16 701.119 1339.08 700.622 1338.71 700.373C1338.35 700.122 1337.77 700.053 1336.96 700.167C1336.6 700.218 1336.15 700.324 1335.62 700.484C1335.08 700.643 1334.51 700.859 1333.88 701.13L1333.78 699.77C1334.54 699.421 1335.25 699.148 1335.9 698.951C1336.57 698.753 1337.17 698.615 1337.72 698.538C1339.15 698.337 1340.14 698.503 1340.66 699.038C1341.19 699.566 1341.3 700.379 1340.99 701.477L1339.54 706.5ZM1334.49 708.418C1335.01 708.345 1335.55 708.145 1336.1 707.819C1336.65 707.492 1337.15 707.076 1337.59 706.568L1338.34 703.959L1336.87 704.167C1335.69 704.332 1334.8 704.643 1334.2 705.101C1333.6 705.552 1333.2 706.112 1333.01 706.78C1332.83 707.408 1332.86 707.861 1333.11 708.141C1333.35 708.421 1333.81 708.514 1334.49 708.418ZM1352.19 696.75L1349.53 706.039L1352.62 705.605L1352.19 707.099L1343.7 708.293L1344.12 706.799L1347.51 706.324L1349.74 698.528L1346.47 698.988L1346.89 697.495L1352.19 696.75ZM1352.17 691.805C1352.59 691.746 1352.89 691.825 1353.07 692.041C1353.26 692.257 1353.3 692.546 1353.2 692.907C1353.09 693.282 1352.87 693.618 1352.53 693.914C1352.21 694.202 1351.83 694.375 1351.41 694.434C1351 694.493 1350.7 694.414 1350.51 694.198C1350.33 693.974 1350.29 693.675 1350.4 693.3C1350.51 692.938 1350.72 692.614 1351.05 692.326C1351.38 692.037 1351.75 691.863 1352.17 691.805Z" fill="white"/>
<g style="mix-blend-mode:darken">
<rect x="1204.29" y="546.565" width="293" height="269" transform="rotate(10.9768 1204.29 546.565)" fill="url(#paint0_linear_41_300)"/>
</g>
</g>
<defs>
<linearGradient id="paint0_linear_41_300" x1="1238.16" y1="622.947" x2="1434.96" y2="776.28" gradientUnits="userSpaceOnUse">
<stop stop-opacity="0.63"/>
<stop offset="1" stop-color="white" stop-opacity="0"/>
</linearGradient>
</defs>
</svg>
